<mxfile host="app.diagrams.net" modified="2024-02-12T20:11:45.716Z" agent="Mozilla/5.0 (Windows NT 10.0; Win64; x64) AppleWebKit/537.36 (KHTML, like Gecko) Chrome/121.0.0.0 Safari/537.36" etag="mVADCpaB6JW-w8ALnMTr" version="23.1.2" type="device">
  <diagram name="Page-1" id="HdHfHY02jsrMt3AkghCz">
    <mxGraphModel dx="2378" dy="1970" grid="1" gridSize="10" guides="1" tooltips="1" connect="1" arrows="1" fold="1" page="1" pageScale="1" pageWidth="850" pageHeight="1100" math="0" shadow="0">
      <root>
        <mxCell id="0" />
        <mxCell id="1" parent="0" />
        <mxCell id="hLQOt44AYmpmIRwFQD5W-1" value="Coder" style="swimlane;fontStyle=0;childLayout=stackLayout;horizontal=1;startSize=26;fillColor=none;horizontalStack=0;resizeParent=1;resizeParentMax=0;resizeLast=0;collapsible=1;marginBottom=0;whiteSpace=wrap;html=1;" parent="1" vertex="1" collapsed="1">
          <mxGeometry x="-10" y="-60" width="380" height="30" as="geometry">
            <mxRectangle y="220" width="170" height="260" as="alternateBounds" />
          </mxGeometry>
        </mxCell>
        <mxCell id="j1QVro5xEkpUKLc03D5Q-11" value="- bio: String" style="text;strokeColor=none;fillColor=none;align=left;verticalAlign=top;spacingLeft=4;spacingRight=4;overflow=hidden;rotatable=0;points=[[0,0.5],[1,0.5]];portConstraint=eastwest;whiteSpace=wrap;html=1;" parent="hLQOt44AYmpmIRwFQD5W-1" vertex="1">
          <mxGeometry y="26" width="170" height="26" as="geometry" />
        </mxCell>
        <mxCell id="j1QVro5xEkpUKLc03D5Q-10" value="- badges:Badge[]" style="text;strokeColor=none;fillColor=none;align=left;verticalAlign=top;spacingLeft=4;spacingRight=4;overflow=hidden;rotatable=0;points=[[0,0.5],[1,0.5]];portConstraint=eastwest;whiteSpace=wrap;html=1;" parent="hLQOt44AYmpmIRwFQD5W-1" vertex="1">
          <mxGeometry y="52" width="170" height="26" as="geometry" />
        </mxCell>
        <mxCell id="j1QVro5xEkpUKLc03D5Q-9" value="- selectedBadges:Badges[]" style="text;strokeColor=none;fillColor=none;align=left;verticalAlign=top;spacingLeft=4;spacingRight=4;overflow=hidden;rotatable=0;points=[[0,0.5],[1,0.5]];portConstraint=eastwest;whiteSpace=wrap;html=1;" parent="hLQOt44AYmpmIRwFQD5W-1" vertex="1">
          <mxGeometry y="78" width="170" height="26" as="geometry" />
        </mxCell>
        <mxCell id="j1QVro5xEkpUKLc03D5Q-5" value="- totalMatches: Number" style="text;strokeColor=none;fillColor=none;align=left;verticalAlign=top;spacingLeft=4;spacingRight=4;overflow=hidden;rotatable=0;points=[[0,0.5],[1,0.5]];portConstraint=eastwest;whiteSpace=wrap;html=1;" parent="hLQOt44AYmpmIRwFQD5W-1" vertex="1">
          <mxGeometry y="104" width="170" height="26" as="geometry" />
        </mxCell>
        <mxCell id="j1QVro5xEkpUKLc03D5Q-4" value="- trophies: Number" style="text;strokeColor=none;fillColor=none;align=left;verticalAlign=top;spacingLeft=4;spacingRight=4;overflow=hidden;rotatable=0;points=[[0,0.5],[1,0.5]];portConstraint=eastwest;whiteSpace=wrap;html=1;" parent="hLQOt44AYmpmIRwFQD5W-1" vertex="1">
          <mxGeometry y="130" width="170" height="26" as="geometry" />
        </mxCell>
        <mxCell id="j1QVro5xEkpUKLc03D5Q-12" value="- wins: Number" style="text;strokeColor=none;fillColor=none;align=left;verticalAlign=top;spacingLeft=4;spacingRight=4;overflow=hidden;rotatable=0;points=[[0,0.5],[1,0.5]];portConstraint=eastwest;whiteSpace=wrap;html=1;" parent="hLQOt44AYmpmIRwFQD5W-1" vertex="1">
          <mxGeometry y="156" width="170" height="26" as="geometry" />
        </mxCell>
        <mxCell id="j1QVro5xEkpUKLc03D5Q-14" value="- loses: Number" style="text;strokeColor=none;fillColor=none;align=left;verticalAlign=top;spacingLeft=4;spacingRight=4;overflow=hidden;rotatable=0;points=[[0,0.5],[1,0.5]];portConstraint=eastwest;whiteSpace=wrap;html=1;" parent="hLQOt44AYmpmIRwFQD5W-1" vertex="1">
          <mxGeometry y="182" width="170" height="26" as="geometry" />
        </mxCell>
        <mxCell id="j1QVro5xEkpUKLc03D5Q-13" value="- draws: Number" style="text;strokeColor=none;fillColor=none;align=left;verticalAlign=top;spacingLeft=4;spacingRight=4;overflow=hidden;rotatable=0;points=[[0,0.5],[1,0.5]];portConstraint=eastwest;whiteSpace=wrap;html=1;" parent="hLQOt44AYmpmIRwFQD5W-1" vertex="1">
          <mxGeometry y="208" width="170" height="26" as="geometry" />
        </mxCell>
        <mxCell id="j1QVro5xEkpUKLc03D5Q-15" value="- division: String" style="text;strokeColor=none;fillColor=none;align=left;verticalAlign=top;spacingLeft=4;spacingRight=4;overflow=hidden;rotatable=0;points=[[0,0.5],[1,0.5]];portConstraint=eastwest;whiteSpace=wrap;html=1;" parent="hLQOt44AYmpmIRwFQD5W-1" vertex="1">
          <mxGeometry y="234" width="170" height="26" as="geometry" />
        </mxCell>
        <mxCell id="hLQOt44AYmpmIRwFQD5W-5" value="userController" style="swimlane;fontStyle=0;childLayout=stackLayout;horizontal=1;startSize=26;fillColor=none;horizontalStack=0;resizeParent=1;resizeParentMax=0;resizeLast=0;collapsible=1;marginBottom=0;whiteSpace=wrap;html=1;" parent="1" vertex="1" collapsed="1">
          <mxGeometry x="-80" y="-340" width="120" height="30" as="geometry">
            <mxRectangle x="-180" y="490" width="280" height="156" as="alternateBounds" />
          </mxGeometry>
        </mxCell>
        <mxCell id="hLQOt44AYmpmIRwFQD5W-7" value="&lt;font style=&quot;font-size: 10px;&quot;&gt;+login(usernameOrEmail,password:String)Json&lt;/font&gt;" style="text;strokeColor=none;fillColor=none;align=left;verticalAlign=top;spacingLeft=4;spacingRight=4;overflow=hidden;rotatable=0;points=[[0,0.5],[1,0.5]];portConstraint=eastwest;whiteSpace=wrap;html=1;" parent="hLQOt44AYmpmIRwFQD5W-5" vertex="1">
          <mxGeometry y="26" width="280" height="26" as="geometry" />
        </mxCell>
        <mxCell id="hLQOt44AYmpmIRwFQD5W-8" value="&lt;font style=&quot;font-size: 10px;&quot;&gt;+ logout():Json&lt;/font&gt;" style="text;strokeColor=none;fillColor=none;align=left;verticalAlign=top;spacingLeft=4;spacingRight=4;overflow=hidden;rotatable=0;points=[[0,0.5],[1,0.5]];portConstraint=eastwest;whiteSpace=wrap;html=1;" parent="hLQOt44AYmpmIRwFQD5W-5" vertex="1">
          <mxGeometry y="52" width="280" height="26" as="geometry" />
        </mxCell>
        <mxCell id="j1QVro5xEkpUKLc03D5Q-17" value="&lt;font style=&quot;font-size: 8px;&quot;&gt;+changePassword(newPassword,confirmPassword,password:String);Json&lt;/font&gt;" style="text;strokeColor=none;fillColor=none;align=left;verticalAlign=top;spacingLeft=4;spacingRight=4;overflow=hidden;rotatable=0;points=[[0,0.5],[1,0.5]];portConstraint=eastwest;whiteSpace=wrap;html=1;" parent="hLQOt44AYmpmIRwFQD5W-5" vertex="1">
          <mxGeometry y="78" width="280" height="26" as="geometry" />
        </mxCell>
        <mxCell id="j1QVro5xEkpUKLc03D5Q-18" value="&lt;font style=&quot;font-size: 10px;&quot;&gt;+getUserByUsername(username:String):Json&lt;/font&gt;" style="text;strokeColor=none;fillColor=none;align=left;verticalAlign=top;spacingLeft=4;spacingRight=4;overflow=hidden;rotatable=0;points=[[0,0.5],[1,0.5]];portConstraint=eastwest;whiteSpace=wrap;html=1;" parent="hLQOt44AYmpmIRwFQD5W-5" vertex="1">
          <mxGeometry y="104" width="280" height="26" as="geometry" />
        </mxCell>
        <mxCell id="j1QVro5xEkpUKLc03D5Q-19" value="&lt;font style=&quot;font-size: 11px;&quot;&gt;+ searchUserByPrefix(prefix:String):Json&lt;/font&gt;" style="text;strokeColor=none;fillColor=none;align=left;verticalAlign=top;spacingLeft=4;spacingRight=4;overflow=hidden;rotatable=0;points=[[0,0.5],[1,0.5]];portConstraint=eastwest;whiteSpace=wrap;html=1;" parent="hLQOt44AYmpmIRwFQD5W-5" vertex="1">
          <mxGeometry y="130" width="280" height="26" as="geometry" />
        </mxCell>
        <mxCell id="-SkAeLWxzW13uVKJ9q1q-1" value="Post" style="swimlane;fontStyle=0;childLayout=stackLayout;horizontal=1;startSize=26;fillColor=none;horizontalStack=0;resizeParent=1;resizeParentMax=0;resizeLast=0;collapsible=1;marginBottom=0;whiteSpace=wrap;html=1;" parent="1" vertex="1" collapsed="1">
          <mxGeometry x="-290" y="160" width="60" height="30" as="geometry">
            <mxRectangle x="240" y="30" width="140" height="182" as="alternateBounds" />
          </mxGeometry>
        </mxCell>
        <mxCell id="-SkAeLWxzW13uVKJ9q1q-2" value="- user: ObjectId(Coder)" style="text;strokeColor=none;fillColor=none;align=left;verticalAlign=top;spacingLeft=4;spacingRight=4;overflow=hidden;rotatable=0;points=[[0,0.5],[1,0.5]];portConstraint=eastwest;whiteSpace=wrap;html=1;" parent="-SkAeLWxzW13uVKJ9q1q-1" vertex="1">
          <mxGeometry y="26" width="140" height="26" as="geometry" />
        </mxCell>
        <mxCell id="-SkAeLWxzW13uVKJ9q1q-3" value="- content: String" style="text;strokeColor=none;fillColor=none;align=left;verticalAlign=top;spacingLeft=4;spacingRight=4;overflow=hidden;rotatable=0;points=[[0,0.5],[1,0.5]];portConstraint=eastwest;whiteSpace=wrap;html=1;" parent="-SkAeLWxzW13uVKJ9q1q-1" vertex="1">
          <mxGeometry y="52" width="140" height="26" as="geometry" />
        </mxCell>
        <mxCell id="-SkAeLWxzW13uVKJ9q1q-5" value="- createdAt: Date" style="text;strokeColor=none;fillColor=none;align=left;verticalAlign=top;spacingLeft=4;spacingRight=4;overflow=hidden;rotatable=0;points=[[0,0.5],[1,0.5]];portConstraint=eastwest;whiteSpace=wrap;html=1;" parent="-SkAeLWxzW13uVKJ9q1q-1" vertex="1">
          <mxGeometry y="78" width="140" height="26" as="geometry" />
        </mxCell>
        <mxCell id="-SkAeLWxzW13uVKJ9q1q-6" value="- updatedAt: Date" style="text;strokeColor=none;fillColor=none;align=left;verticalAlign=top;spacingLeft=4;spacingRight=4;overflow=hidden;rotatable=0;points=[[0,0.5],[1,0.5]];portConstraint=eastwest;whiteSpace=wrap;html=1;" parent="-SkAeLWxzW13uVKJ9q1q-1" vertex="1">
          <mxGeometry y="104" width="140" height="26" as="geometry" />
        </mxCell>
        <mxCell id="-SkAeLWxzW13uVKJ9q1q-7" value="- likesCount: Number" style="text;strokeColor=none;fillColor=none;align=left;verticalAlign=top;spacingLeft=4;spacingRight=4;overflow=hidden;rotatable=0;points=[[0,0.5],[1,0.5]];portConstraint=eastwest;whiteSpace=wrap;html=1;" parent="-SkAeLWxzW13uVKJ9q1q-1" vertex="1">
          <mxGeometry y="130" width="140" height="26" as="geometry" />
        </mxCell>
        <mxCell id="-SkAeLWxzW13uVKJ9q1q-9" value="- _id: ObjectId" style="text;strokeColor=none;fillColor=none;align=left;verticalAlign=top;spacingLeft=4;spacingRight=4;overflow=hidden;rotatable=0;points=[[0,0.5],[1,0.5]];portConstraint=eastwest;whiteSpace=wrap;html=1;" parent="-SkAeLWxzW13uVKJ9q1q-1" vertex="1">
          <mxGeometry y="156" width="140" height="26" as="geometry" />
        </mxCell>
        <mxCell id="-SkAeLWxzW13uVKJ9q1q-10" value="postController" style="swimlane;fontStyle=0;childLayout=stackLayout;horizontal=1;startSize=26;fillColor=none;horizontalStack=0;resizeParent=1;resizeParentMax=0;resizeLast=0;collapsible=1;marginBottom=0;whiteSpace=wrap;html=1;" parent="1" vertex="1" collapsed="1">
          <mxGeometry x="-320" y="236" width="120" height="30" as="geometry">
            <mxRectangle x="220" y="280" width="190" height="130" as="alternateBounds" />
          </mxGeometry>
        </mxCell>
        <mxCell id="-SkAeLWxzW13uVKJ9q1q-11" value="&lt;font style=&quot;font-size: 9px;&quot;&gt;+ createPost(content,userId:String):json&lt;/font&gt;" style="text;strokeColor=none;fillColor=none;align=left;verticalAlign=top;spacingLeft=4;spacingRight=4;overflow=hidden;rotatable=0;points=[[0,0.5],[1,0.5]];portConstraint=eastwest;whiteSpace=wrap;html=1;" parent="-SkAeLWxzW13uVKJ9q1q-10" vertex="1">
          <mxGeometry y="26" width="190" height="26" as="geometry" />
        </mxCell>
        <mxCell id="-SkAeLWxzW13uVKJ9q1q-12" value="&lt;font style=&quot;font-size: 10px;&quot;&gt;+ updatePostById(postId:string):json&lt;/font&gt;" style="text;strokeColor=none;fillColor=none;align=left;verticalAlign=top;spacingLeft=4;spacingRight=4;overflow=hidden;rotatable=0;points=[[0,0.5],[1,0.5]];portConstraint=eastwest;whiteSpace=wrap;html=1;" parent="-SkAeLWxzW13uVKJ9q1q-10" vertex="1">
          <mxGeometry y="52" width="190" height="26" as="geometry" />
        </mxCell>
        <mxCell id="-SkAeLWxzW13uVKJ9q1q-13" value="&lt;font style=&quot;font-size: 10px;&quot;&gt;+ deletePostById(postId:string):json&lt;/font&gt;" style="text;strokeColor=none;fillColor=none;align=left;verticalAlign=top;spacingLeft=4;spacingRight=4;overflow=hidden;rotatable=0;points=[[0,0.5],[1,0.5]];portConstraint=eastwest;whiteSpace=wrap;html=1;" parent="-SkAeLWxzW13uVKJ9q1q-10" vertex="1">
          <mxGeometry y="78" width="190" height="26" as="geometry" />
        </mxCell>
        <mxCell id="-SkAeLWxzW13uVKJ9q1q-14" value="&lt;font style=&quot;font-size: 10px;&quot;&gt;+ getUserPosts(userId:String):json&lt;/font&gt;" style="text;strokeColor=none;fillColor=none;align=left;verticalAlign=top;spacingLeft=4;spacingRight=4;overflow=hidden;rotatable=0;points=[[0,0.5],[1,0.5]];portConstraint=eastwest;whiteSpace=wrap;html=1;" parent="-SkAeLWxzW13uVKJ9q1q-10" vertex="1">
          <mxGeometry y="104" width="190" height="26" as="geometry" />
        </mxCell>
        <mxCell id="-SkAeLWxzW13uVKJ9q1q-15" value="Like" style="swimlane;fontStyle=0;childLayout=stackLayout;horizontal=1;startSize=26;fillColor=none;horizontalStack=0;resizeParent=1;resizeParentMax=0;resizeLast=0;collapsible=1;marginBottom=0;whiteSpace=wrap;html=1;" parent="1" vertex="1" collapsed="1">
          <mxGeometry x="-450" y="160" width="60" height="30" as="geometry">
            <mxRectangle x="240" y="460" width="160" height="130" as="alternateBounds" />
          </mxGeometry>
        </mxCell>
        <mxCell id="-SkAeLWxzW13uVKJ9q1q-16" value="- userId: ObjectId(User)" style="text;strokeColor=none;fillColor=none;align=left;verticalAlign=top;spacingLeft=4;spacingRight=4;overflow=hidden;rotatable=0;points=[[0,0.5],[1,0.5]];portConstraint=eastwest;whiteSpace=wrap;html=1;" parent="-SkAeLWxzW13uVKJ9q1q-15" vertex="1">
          <mxGeometry y="26" width="160" height="26" as="geometry" />
        </mxCell>
        <mxCell id="-SkAeLWxzW13uVKJ9q1q-17" value="- contentId: ObjectId" style="text;strokeColor=none;fillColor=none;align=left;verticalAlign=top;spacingLeft=4;spacingRight=4;overflow=hidden;rotatable=0;points=[[0,0.5],[1,0.5]];portConstraint=eastwest;whiteSpace=wrap;html=1;" parent="-SkAeLWxzW13uVKJ9q1q-15" vertex="1">
          <mxGeometry y="52" width="160" height="26" as="geometry" />
        </mxCell>
        <mxCell id="-SkAeLWxzW13uVKJ9q1q-18" value="- date: Date" style="text;strokeColor=none;fillColor=none;align=left;verticalAlign=top;spacingLeft=4;spacingRight=4;overflow=hidden;rotatable=0;points=[[0,0.5],[1,0.5]];portConstraint=eastwest;whiteSpace=wrap;html=1;" parent="-SkAeLWxzW13uVKJ9q1q-15" vertex="1">
          <mxGeometry y="78" width="160" height="26" as="geometry" />
        </mxCell>
        <mxCell id="-SkAeLWxzW13uVKJ9q1q-35" value="- _id: ObjectId" style="text;strokeColor=none;fillColor=none;align=left;verticalAlign=top;spacingLeft=4;spacingRight=4;overflow=hidden;rotatable=0;points=[[0,0.5],[1,0.5]];portConstraint=eastwest;whiteSpace=wrap;html=1;" parent="-SkAeLWxzW13uVKJ9q1q-15" vertex="1">
          <mxGeometry y="104" width="160" height="26" as="geometry" />
        </mxCell>
        <mxCell id="-SkAeLWxzW13uVKJ9q1q-19" value="likeController" style="swimlane;fontStyle=0;childLayout=stackLayout;horizontal=1;startSize=26;fillColor=none;horizontalStack=0;resizeParent=1;resizeParentMax=0;resizeLast=0;collapsible=1;marginBottom=0;whiteSpace=wrap;html=1;" parent="1" vertex="1" collapsed="1">
          <mxGeometry x="-480" y="240" width="110" height="30" as="geometry">
            <mxRectangle x="240" y="640" width="190" height="52" as="alternateBounds" />
          </mxGeometry>
        </mxCell>
        <mxCell id="-SkAeLWxzW13uVKJ9q1q-20" value="&lt;font style=&quot;font-size: 8px;&quot;&gt;+addOrRemoveLike(userId,contentId:String):json&lt;/font&gt;" style="text;strokeColor=none;fillColor=none;align=left;verticalAlign=top;spacingLeft=4;spacingRight=4;overflow=hidden;rotatable=0;points=[[0,0.5],[1,0.5]];portConstraint=eastwest;whiteSpace=wrap;html=1;" parent="-SkAeLWxzW13uVKJ9q1q-19" vertex="1">
          <mxGeometry y="26" width="190" height="26" as="geometry" />
        </mxCell>
        <mxCell id="-SkAeLWxzW13uVKJ9q1q-23" value="Freindship" style="swimlane;fontStyle=0;childLayout=stackLayout;horizontal=1;startSize=26;fillColor=none;horizontalStack=0;resizeParent=1;resizeParentMax=0;resizeLast=0;collapsible=1;marginBottom=0;whiteSpace=wrap;html=1;" parent="1" vertex="1" collapsed="1">
          <mxGeometry x="-165" y="166" width="100" height="30" as="geometry">
            <mxRectangle x="440" y="30" width="170" height="156" as="alternateBounds" />
          </mxGeometry>
        </mxCell>
        <mxCell id="-SkAeLWxzW13uVKJ9q1q-24" value="- senderId: ObjectId(Coder)" style="text;strokeColor=none;fillColor=none;align=left;verticalAlign=top;spacingLeft=4;spacingRight=4;overflow=hidden;rotatable=0;points=[[0,0.5],[1,0.5]];portConstraint=eastwest;whiteSpace=wrap;html=1;" parent="-SkAeLWxzW13uVKJ9q1q-23" vertex="1">
          <mxGeometry y="26" width="170" height="26" as="geometry" />
        </mxCell>
        <mxCell id="-SkAeLWxzW13uVKJ9q1q-27" value="- receiverId: ObjectId(Coder)" style="text;strokeColor=none;fillColor=none;align=left;verticalAlign=top;spacingLeft=4;spacingRight=4;overflow=hidden;rotatable=0;points=[[0,0.5],[1,0.5]];portConstraint=eastwest;whiteSpace=wrap;html=1;" parent="-SkAeLWxzW13uVKJ9q1q-23" vertex="1">
          <mxGeometry y="52" width="170" height="26" as="geometry" />
        </mxCell>
        <mxCell id="-SkAeLWxzW13uVKJ9q1q-25" value="-status : enum (String)&amp;nbsp;" style="text;strokeColor=none;fillColor=none;align=left;verticalAlign=top;spacingLeft=4;spacingRight=4;overflow=hidden;rotatable=0;points=[[0,0.5],[1,0.5]];portConstraint=eastwest;whiteSpace=wrap;html=1;" parent="-SkAeLWxzW13uVKJ9q1q-23" vertex="1">
          <mxGeometry y="78" width="170" height="26" as="geometry" />
        </mxCell>
        <mxCell id="-SkAeLWxzW13uVKJ9q1q-26" value="- CreatedAt: Date" style="text;strokeColor=none;fillColor=none;align=left;verticalAlign=top;spacingLeft=4;spacingRight=4;overflow=hidden;rotatable=0;points=[[0,0.5],[1,0.5]];portConstraint=eastwest;whiteSpace=wrap;html=1;" parent="-SkAeLWxzW13uVKJ9q1q-23" vertex="1">
          <mxGeometry y="104" width="170" height="26" as="geometry" />
        </mxCell>
        <mxCell id="-SkAeLWxzW13uVKJ9q1q-28" value="- _id: ObjectId" style="text;strokeColor=none;fillColor=none;align=left;verticalAlign=top;spacingLeft=4;spacingRight=4;overflow=hidden;rotatable=0;points=[[0,0.5],[1,0.5]];portConstraint=eastwest;whiteSpace=wrap;html=1;" parent="-SkAeLWxzW13uVKJ9q1q-23" vertex="1">
          <mxGeometry y="130" width="170" height="26" as="geometry" />
        </mxCell>
        <mxCell id="-SkAeLWxzW13uVKJ9q1q-29" value="friendshipController" style="swimlane;fontStyle=0;childLayout=stackLayout;horizontal=1;startSize=26;fillColor=none;horizontalStack=0;resizeParent=1;resizeParentMax=0;resizeLast=0;collapsible=1;marginBottom=0;whiteSpace=wrap;html=1;" parent="1" vertex="1" collapsed="1">
          <mxGeometry x="-185" y="236" width="140" height="30" as="geometry">
            <mxRectangle x="440" y="240" width="160" height="156" as="alternateBounds" />
          </mxGeometry>
        </mxCell>
        <mxCell id="-SkAeLWxzW13uVKJ9q1q-30" value="&lt;font style=&quot;font-size: 6px;&quot;&gt;+ sendFriendRequest(senderId,recieverId:String):json&lt;/font&gt;" style="text;strokeColor=none;fillColor=none;align=left;verticalAlign=top;spacingLeft=4;spacingRight=4;overflow=hidden;rotatable=0;points=[[0,0.5],[1,0.5]];portConstraint=eastwest;whiteSpace=wrap;html=1;" parent="-SkAeLWxzW13uVKJ9q1q-29" vertex="1">
          <mxGeometry y="26" width="160" height="26" as="geometry" />
        </mxCell>
        <mxCell id="-SkAeLWxzW13uVKJ9q1q-33" value="&lt;font style=&quot;font-size: 6px;&quot;&gt;+ acceptFriendRequest(senderId,recieverId:String):json&lt;/font&gt;" style="text;strokeColor=none;fillColor=none;align=left;verticalAlign=top;spacingLeft=4;spacingRight=4;overflow=hidden;rotatable=0;points=[[0,0.5],[1,0.5]];portConstraint=eastwest;whiteSpace=wrap;html=1;" parent="-SkAeLWxzW13uVKJ9q1q-29" vertex="1">
          <mxGeometry y="52" width="160" height="26" as="geometry" />
        </mxCell>
        <mxCell id="-SkAeLWxzW13uVKJ9q1q-34" value="&lt;font style=&quot;font-size: 6px;&quot;&gt;+ rejectFriendRequest(senderId,recieverId:String):json&lt;/font&gt;" style="text;strokeColor=none;fillColor=none;align=left;verticalAlign=top;spacingLeft=4;spacingRight=4;overflow=hidden;rotatable=0;points=[[0,0.5],[1,0.5]];portConstraint=eastwest;whiteSpace=wrap;html=1;" parent="-SkAeLWxzW13uVKJ9q1q-29" vertex="1">
          <mxGeometry y="78" width="160" height="26" as="geometry" />
        </mxCell>
        <mxCell id="-SkAeLWxzW13uVKJ9q1q-31" value="&lt;font style=&quot;font-size: 7px;&quot;&gt;+ deleteFriend(senderId,recieverId:String):json&lt;/font&gt;" style="text;strokeColor=none;fillColor=none;align=left;verticalAlign=top;spacingLeft=4;spacingRight=4;overflow=hidden;rotatable=0;points=[[0,0.5],[1,0.5]];portConstraint=eastwest;whiteSpace=wrap;html=1;" parent="-SkAeLWxzW13uVKJ9q1q-29" vertex="1">
          <mxGeometry y="104" width="160" height="26" as="geometry" />
        </mxCell>
        <mxCell id="-SkAeLWxzW13uVKJ9q1q-32" value="&lt;font style=&quot;font-size: 9px;&quot;&gt;+ getAllFriends(userId:String):json&lt;/font&gt;" style="text;strokeColor=none;fillColor=none;align=left;verticalAlign=top;spacingLeft=4;spacingRight=4;overflow=hidden;rotatable=0;points=[[0,0.5],[1,0.5]];portConstraint=eastwest;whiteSpace=wrap;html=1;" parent="-SkAeLWxzW13uVKJ9q1q-29" vertex="1">
          <mxGeometry y="130" width="160" height="26" as="geometry" />
        </mxCell>
        <mxCell id="-SkAeLWxzW13uVKJ9q1q-36" value="Clan" style="swimlane;fontStyle=0;childLayout=stackLayout;horizontal=1;startSize=26;fillColor=none;horizontalStack=0;resizeParent=1;resizeParentMax=0;resizeLast=0;collapsible=1;marginBottom=0;whiteSpace=wrap;html=1;" parent="1" vertex="1" collapsed="1">
          <mxGeometry x="680" y="160" width="70" height="30" as="geometry">
            <mxRectangle x="630" y="30" width="170" height="156" as="alternateBounds" />
          </mxGeometry>
        </mxCell>
        <mxCell id="-SkAeLWxzW13uVKJ9q1q-37" value="-name:String" style="text;strokeColor=none;fillColor=none;align=left;verticalAlign=top;spacingLeft=4;spacingRight=4;overflow=hidden;rotatable=0;points=[[0,0.5],[1,0.5]];portConstraint=eastwest;whiteSpace=wrap;html=1;" parent="-SkAeLWxzW13uVKJ9q1q-36" vertex="1">
          <mxGeometry y="26" width="170" height="26" as="geometry" />
        </mxCell>
        <mxCell id="-SkAeLWxzW13uVKJ9q1q-38" value="-leaderId: ObjectId(Coder)" style="text;strokeColor=none;fillColor=none;align=left;verticalAlign=top;spacingLeft=4;spacingRight=4;overflow=hidden;rotatable=0;points=[[0,0.5],[1,0.5]];portConstraint=eastwest;whiteSpace=wrap;html=1;" parent="-SkAeLWxzW13uVKJ9q1q-36" vertex="1">
          <mxGeometry y="52" width="170" height="26" as="geometry" />
        </mxCell>
        <mxCell id="-SkAeLWxzW13uVKJ9q1q-39" value="-members: ObjectId(Coder)[]" style="text;strokeColor=none;fillColor=none;align=left;verticalAlign=top;spacingLeft=4;spacingRight=4;overflow=hidden;rotatable=0;points=[[0,0.5],[1,0.5]];portConstraint=eastwest;whiteSpace=wrap;html=1;" parent="-SkAeLWxzW13uVKJ9q1q-36" vertex="1">
          <mxGeometry y="78" width="170" height="26" as="geometry" />
        </mxCell>
        <mxCell id="-SkAeLWxzW13uVKJ9q1q-40" value="-rank: String" style="text;strokeColor=none;fillColor=none;align=left;verticalAlign=top;spacingLeft=4;spacingRight=4;overflow=hidden;rotatable=0;points=[[0,0.5],[1,0.5]];portConstraint=eastwest;whiteSpace=wrap;html=1;" parent="-SkAeLWxzW13uVKJ9q1q-36" vertex="1">
          <mxGeometry y="104" width="170" height="26" as="geometry" />
        </mxCell>
        <mxCell id="-SkAeLWxzW13uVKJ9q1q-42" value="- _id: ObjectId" style="text;strokeColor=none;fillColor=none;align=left;verticalAlign=top;spacingLeft=4;spacingRight=4;overflow=hidden;rotatable=0;points=[[0,0.5],[1,0.5]];portConstraint=eastwest;whiteSpace=wrap;html=1;" parent="-SkAeLWxzW13uVKJ9q1q-36" vertex="1">
          <mxGeometry y="130" width="170" height="26" as="geometry" />
        </mxCell>
        <mxCell id="-SkAeLWxzW13uVKJ9q1q-43" value="clanController" style="swimlane;fontStyle=0;childLayout=stackLayout;horizontal=1;startSize=26;fillColor=none;horizontalStack=0;resizeParent=1;resizeParentMax=0;resizeLast=0;collapsible=1;marginBottom=0;whiteSpace=wrap;html=1;" parent="1" vertex="1" collapsed="1">
          <mxGeometry x="660" y="240" width="110" height="30" as="geometry">
            <mxRectangle x="610" y="260" width="220" height="208" as="alternateBounds" />
          </mxGeometry>
        </mxCell>
        <mxCell id="-SkAeLWxzW13uVKJ9q1q-44" value="&lt;font style=&quot;font-size: 11px;&quot;&gt;+ createClan(name,leaderId:String):json&lt;/font&gt;" style="text;strokeColor=none;fillColor=none;align=left;verticalAlign=top;spacingLeft=4;spacingRight=4;overflow=hidden;rotatable=0;points=[[0,0.5],[1,0.5]];portConstraint=eastwest;whiteSpace=wrap;html=1;" parent="-SkAeLWxzW13uVKJ9q1q-43" vertex="1">
          <mxGeometry y="26" width="220" height="26" as="geometry" />
        </mxCell>
        <mxCell id="-SkAeLWxzW13uVKJ9q1q-45" value="+ getAllClans():json" style="text;strokeColor=none;fillColor=none;align=left;verticalAlign=top;spacingLeft=4;spacingRight=4;overflow=hidden;rotatable=0;points=[[0,0.5],[1,0.5]];portConstraint=eastwest;whiteSpace=wrap;html=1;" parent="-SkAeLWxzW13uVKJ9q1q-43" vertex="1">
          <mxGeometry y="52" width="220" height="26" as="geometry" />
        </mxCell>
        <mxCell id="-SkAeLWxzW13uVKJ9q1q-46" value="+ getClanById(clanId:String):json" style="text;strokeColor=none;fillColor=none;align=left;verticalAlign=top;spacingLeft=4;spacingRight=4;overflow=hidden;rotatable=0;points=[[0,0.5],[1,0.5]];portConstraint=eastwest;whiteSpace=wrap;html=1;" parent="-SkAeLWxzW13uVKJ9q1q-43" vertex="1">
          <mxGeometry y="78" width="220" height="26" as="geometry" />
        </mxCell>
        <mxCell id="-SkAeLWxzW13uVKJ9q1q-48" value="+ updateClanById(clanId:string):json" style="text;strokeColor=none;fillColor=none;align=left;verticalAlign=top;spacingLeft=4;spacingRight=4;overflow=hidden;rotatable=0;points=[[0,0.5],[1,0.5]];portConstraint=eastwest;whiteSpace=wrap;html=1;" parent="-SkAeLWxzW13uVKJ9q1q-43" vertex="1">
          <mxGeometry y="104" width="220" height="26" as="geometry" />
        </mxCell>
        <mxCell id="-SkAeLWxzW13uVKJ9q1q-49" value="+ deleteClanById(clanId:string):json" style="text;strokeColor=none;fillColor=none;align=left;verticalAlign=top;spacingLeft=4;spacingRight=4;overflow=hidden;rotatable=0;points=[[0,0.5],[1,0.5]];portConstraint=eastwest;whiteSpace=wrap;html=1;" parent="-SkAeLWxzW13uVKJ9q1q-43" vertex="1">
          <mxGeometry y="130" width="220" height="26" as="geometry" />
        </mxCell>
        <mxCell id="-SkAeLWxzW13uVKJ9q1q-50" value="+ joinClan(name,userId:string):json" style="text;strokeColor=none;fillColor=none;align=left;verticalAlign=top;spacingLeft=4;spacingRight=4;overflow=hidden;rotatable=0;points=[[0,0.5],[1,0.5]];portConstraint=eastwest;whiteSpace=wrap;html=1;" parent="-SkAeLWxzW13uVKJ9q1q-43" vertex="1">
          <mxGeometry y="156" width="220" height="26" as="geometry" />
        </mxCell>
        <mxCell id="-SkAeLWxzW13uVKJ9q1q-51" value="+ leaveClan(name,userId:string):json" style="text;strokeColor=none;fillColor=none;align=left;verticalAlign=top;spacingLeft=4;spacingRight=4;overflow=hidden;rotatable=0;points=[[0,0.5],[1,0.5]];portConstraint=eastwest;whiteSpace=wrap;html=1;" parent="-SkAeLWxzW13uVKJ9q1q-43" vertex="1">
          <mxGeometry y="182" width="220" height="26" as="geometry" />
        </mxCell>
        <mxCell id="-SkAeLWxzW13uVKJ9q1q-52" value="Badge" style="swimlane;fontStyle=0;childLayout=stackLayout;horizontal=1;startSize=26;fillColor=none;horizontalStack=0;resizeParent=1;resizeParentMax=0;resizeLast=0;collapsible=1;marginBottom=0;whiteSpace=wrap;html=1;" parent="1" vertex="1" collapsed="1">
          <mxGeometry x="5" y="161" width="80" height="28" as="geometry">
            <mxRectangle x="870" y="30" width="140" height="130" as="alternateBounds" />
          </mxGeometry>
        </mxCell>
        <mxCell id="-SkAeLWxzW13uVKJ9q1q-53" value="-name:String" style="text;strokeColor=none;fillColor=none;align=left;verticalAlign=top;spacingLeft=4;spacingRight=4;overflow=hidden;rotatable=0;points=[[0,0.5],[1,0.5]];portConstraint=eastwest;whiteSpace=wrap;html=1;" parent="-SkAeLWxzW13uVKJ9q1q-52" vertex="1">
          <mxGeometry y="26" width="140" height="26" as="geometry" />
        </mxCell>
        <mxCell id="-SkAeLWxzW13uVKJ9q1q-54" value="-photo: String" style="text;strokeColor=none;fillColor=none;align=left;verticalAlign=top;spacingLeft=4;spacingRight=4;overflow=hidden;rotatable=0;points=[[0,0.5],[1,0.5]];portConstraint=eastwest;whiteSpace=wrap;html=1;" parent="-SkAeLWxzW13uVKJ9q1q-52" vertex="1">
          <mxGeometry y="52" width="140" height="26" as="geometry" />
        </mxCell>
        <mxCell id="-SkAeLWxzW13uVKJ9q1q-55" value="-description: String" style="text;strokeColor=none;fillColor=none;align=left;verticalAlign=top;spacingLeft=4;spacingRight=4;overflow=hidden;rotatable=0;points=[[0,0.5],[1,0.5]];portConstraint=eastwest;whiteSpace=wrap;html=1;" parent="-SkAeLWxzW13uVKJ9q1q-52" vertex="1">
          <mxGeometry y="78" width="140" height="26" as="geometry" />
        </mxCell>
        <mxCell id="-SkAeLWxzW13uVKJ9q1q-56" value="- _id: ObjectId" style="text;strokeColor=none;fillColor=none;align=left;verticalAlign=top;spacingLeft=4;spacingRight=4;overflow=hidden;rotatable=0;points=[[0,0.5],[1,0.5]];portConstraint=eastwest;whiteSpace=wrap;html=1;" parent="-SkAeLWxzW13uVKJ9q1q-52" vertex="1">
          <mxGeometry y="104" width="140" height="26" as="geometry" />
        </mxCell>
        <mxCell id="-SkAeLWxzW13uVKJ9q1q-57" value="badgeController" style="swimlane;fontStyle=0;childLayout=stackLayout;horizontal=1;startSize=26;fillColor=none;horizontalStack=0;resizeParent=1;resizeParentMax=0;resizeLast=0;collapsible=1;marginBottom=0;whiteSpace=wrap;html=1;" parent="1" vertex="1" collapsed="1">
          <mxGeometry x="-20" y="237" width="130" height="30" as="geometry">
            <mxRectangle x="850" y="230" width="210" height="156" as="alternateBounds" />
          </mxGeometry>
        </mxCell>
        <mxCell id="-SkAeLWxzW13uVKJ9q1q-58" value="&lt;font style=&quot;font-size: 9px;&quot;&gt;+createBadge(name,photo,description:string):json&lt;/font&gt;" style="text;strokeColor=none;fillColor=none;align=left;verticalAlign=top;spacingLeft=4;spacingRight=4;overflow=hidden;rotatable=0;points=[[0,0.5],[1,0.5]];portConstraint=eastwest;whiteSpace=wrap;html=1;" parent="-SkAeLWxzW13uVKJ9q1q-57" vertex="1">
          <mxGeometry y="26" width="210" height="26" as="geometry" />
        </mxCell>
        <mxCell id="-SkAeLWxzW13uVKJ9q1q-61" value="+ getAllBadges():json" style="text;strokeColor=none;fillColor=none;align=left;verticalAlign=top;spacingLeft=4;spacingRight=4;overflow=hidden;rotatable=0;points=[[0,0.5],[1,0.5]];portConstraint=eastwest;whiteSpace=wrap;html=1;" parent="-SkAeLWxzW13uVKJ9q1q-57" vertex="1">
          <mxGeometry y="52" width="210" height="26" as="geometry" />
        </mxCell>
        <mxCell id="-SkAeLWxzW13uVKJ9q1q-62" value="&lt;font style=&quot;font-size: 10px;&quot;&gt;+ updateBadgeById(badgeId:string):json&lt;/font&gt;" style="text;strokeColor=none;fillColor=none;align=left;verticalAlign=top;spacingLeft=4;spacingRight=4;overflow=hidden;rotatable=0;points=[[0,0.5],[1,0.5]];portConstraint=eastwest;whiteSpace=wrap;html=1;" parent="-SkAeLWxzW13uVKJ9q1q-57" vertex="1">
          <mxGeometry y="78" width="210" height="26" as="geometry" />
        </mxCell>
        <mxCell id="-SkAeLWxzW13uVKJ9q1q-63" value="+ getBadgeById(badgeId:string):json" style="text;strokeColor=none;fillColor=none;align=left;verticalAlign=top;spacingLeft=4;spacingRight=4;overflow=hidden;rotatable=0;points=[[0,0.5],[1,0.5]];portConstraint=eastwest;whiteSpace=wrap;html=1;" parent="-SkAeLWxzW13uVKJ9q1q-57" vertex="1">
          <mxGeometry y="104" width="210" height="26" as="geometry" />
        </mxCell>
        <mxCell id="-SkAeLWxzW13uVKJ9q1q-64" value="&lt;font style=&quot;font-size: 10px;&quot;&gt;+ deleteBadgeById(badgeId:string):json&lt;/font&gt;" style="text;strokeColor=none;fillColor=none;align=left;verticalAlign=top;spacingLeft=4;spacingRight=4;overflow=hidden;rotatable=0;points=[[0,0.5],[1,0.5]];portConstraint=eastwest;whiteSpace=wrap;html=1;" parent="-SkAeLWxzW13uVKJ9q1q-57" vertex="1">
          <mxGeometry y="130" width="210" height="26" as="geometry" />
        </mxCell>
        <mxCell id="-SkAeLWxzW13uVKJ9q1q-65" value="Submission" style="swimlane;fontStyle=0;childLayout=stackLayout;horizontal=1;startSize=26;fillColor=none;horizontalStack=0;resizeParent=1;resizeParentMax=0;resizeLast=0;collapsible=1;marginBottom=0;whiteSpace=wrap;html=1;" parent="1" vertex="1" collapsed="1">
          <mxGeometry x="165" y="164" width="100" height="30" as="geometry">
            <mxRectangle x="1070" y="30" width="170" height="260" as="alternateBounds" />
          </mxGeometry>
        </mxCell>
        <mxCell id="-SkAeLWxzW13uVKJ9q1q-66" value="-language:String" style="text;strokeColor=none;fillColor=none;align=left;verticalAlign=top;spacingLeft=4;spacingRight=4;overflow=hidden;rotatable=0;points=[[0,0.5],[1,0.5]];portConstraint=eastwest;whiteSpace=wrap;html=1;" parent="-SkAeLWxzW13uVKJ9q1q-65" vertex="1">
          <mxGeometry y="26" width="170" height="26" as="geometry" />
        </mxCell>
        <mxCell id="-SkAeLWxzW13uVKJ9q1q-67" value="-code:String" style="text;strokeColor=none;fillColor=none;align=left;verticalAlign=top;spacingLeft=4;spacingRight=4;overflow=hidden;rotatable=0;points=[[0,0.5],[1,0.5]];portConstraint=eastwest;whiteSpace=wrap;html=1;" parent="-SkAeLWxzW13uVKJ9q1q-65" vertex="1">
          <mxGeometry y="52" width="170" height="26" as="geometry" />
        </mxCell>
        <mxCell id="-SkAeLWxzW13uVKJ9q1q-68" value="problemId:ObjectId(Problem)" style="text;strokeColor=none;fillColor=none;align=left;verticalAlign=top;spacingLeft=4;spacingRight=4;overflow=hidden;rotatable=0;points=[[0,0.5],[1,0.5]];portConstraint=eastwest;whiteSpace=wrap;html=1;" parent="-SkAeLWxzW13uVKJ9q1q-65" vertex="1">
          <mxGeometry y="78" width="170" height="26" as="geometry" />
        </mxCell>
        <mxCell id="-SkAeLWxzW13uVKJ9q1q-73" value="-verdict:enum(String)" style="text;strokeColor=none;fillColor=none;align=left;verticalAlign=top;spacingLeft=4;spacingRight=4;overflow=hidden;rotatable=0;points=[[0,0.5],[1,0.5]];portConstraint=eastwest;whiteSpace=wrap;html=1;" parent="-SkAeLWxzW13uVKJ9q1q-65" vertex="1">
          <mxGeometry y="104" width="170" height="26" as="geometry" />
        </mxCell>
        <mxCell id="-SkAeLWxzW13uVKJ9q1q-74" value="-userIds:ObjectId(Coder)" style="text;strokeColor=none;fillColor=none;align=left;verticalAlign=top;spacingLeft=4;spacingRight=4;overflow=hidden;rotatable=0;points=[[0,0.5],[1,0.5]];portConstraint=eastwest;whiteSpace=wrap;html=1;" parent="-SkAeLWxzW13uVKJ9q1q-65" vertex="1">
          <mxGeometry y="130" width="170" height="26" as="geometry" />
        </mxCell>
        <mxCell id="-SkAeLWxzW13uVKJ9q1q-75" value="-timeLimit:String" style="text;strokeColor=none;fillColor=none;align=left;verticalAlign=top;spacingLeft=4;spacingRight=4;overflow=hidden;rotatable=0;points=[[0,0.5],[1,0.5]];portConstraint=eastwest;whiteSpace=wrap;html=1;" parent="-SkAeLWxzW13uVKJ9q1q-65" vertex="1">
          <mxGeometry y="156" width="170" height="26" as="geometry" />
        </mxCell>
        <mxCell id="-SkAeLWxzW13uVKJ9q1q-76" value="-memoryLimit:String" style="text;strokeColor=none;fillColor=none;align=left;verticalAlign=top;spacingLeft=4;spacingRight=4;overflow=hidden;rotatable=0;points=[[0,0.5],[1,0.5]];portConstraint=eastwest;whiteSpace=wrap;html=1;" parent="-SkAeLWxzW13uVKJ9q1q-65" vertex="1">
          <mxGeometry y="182" width="170" height="26" as="geometry" />
        </mxCell>
        <mxCell id="-SkAeLWxzW13uVKJ9q1q-168" value="-submittedAt:Date" style="text;strokeColor=none;fillColor=none;align=left;verticalAlign=top;spacingLeft=4;spacingRight=4;overflow=hidden;rotatable=0;points=[[0,0.5],[1,0.5]];portConstraint=eastwest;whiteSpace=wrap;html=1;" parent="-SkAeLWxzW13uVKJ9q1q-65" vertex="1">
          <mxGeometry y="208" width="170" height="26" as="geometry" />
        </mxCell>
        <mxCell id="-SkAeLWxzW13uVKJ9q1q-87" value="- _id: ObjectId" style="text;strokeColor=none;fillColor=none;align=left;verticalAlign=top;spacingLeft=4;spacingRight=4;overflow=hidden;rotatable=0;points=[[0,0.5],[1,0.5]];portConstraint=eastwest;whiteSpace=wrap;html=1;" parent="-SkAeLWxzW13uVKJ9q1q-65" vertex="1">
          <mxGeometry y="234" width="170" height="26" as="geometry" />
        </mxCell>
        <mxCell id="-SkAeLWxzW13uVKJ9q1q-77" value="submissionController" style="swimlane;fontStyle=0;childLayout=stackLayout;horizontal=1;startSize=26;fillColor=none;horizontalStack=0;resizeParent=1;resizeParentMax=0;resizeLast=0;collapsible=1;marginBottom=0;whiteSpace=wrap;html=1;" parent="1" vertex="1" collapsed="1">
          <mxGeometry x="134" y="237" width="150" height="30" as="geometry">
            <mxRectangle x="1077.5" y="350" width="242.5" height="156" as="alternateBounds" />
          </mxGeometry>
        </mxCell>
        <mxCell id="-SkAeLWxzW13uVKJ9q1q-78" value="&lt;font style=&quot;font-size: 8px;&quot;&gt;+ createSubmission(language,code,problemId,userId,..):json&lt;/font&gt;" style="text;strokeColor=none;fillColor=none;align=left;verticalAlign=top;spacingLeft=4;spacingRight=4;overflow=hidden;rotatable=0;points=[[0,0.5],[1,0.5]];portConstraint=eastwest;whiteSpace=wrap;html=1;" parent="-SkAeLWxzW13uVKJ9q1q-77" vertex="1">
          <mxGeometry y="26" width="242.5" height="26" as="geometry" />
        </mxCell>
        <mxCell id="-SkAeLWxzW13uVKJ9q1q-79" value="+ getAllSubmissions():json" style="text;strokeColor=none;fillColor=none;align=left;verticalAlign=top;spacingLeft=4;spacingRight=4;overflow=hidden;rotatable=0;points=[[0,0.5],[1,0.5]];portConstraint=eastwest;whiteSpace=wrap;html=1;" parent="-SkAeLWxzW13uVKJ9q1q-77" vertex="1">
          <mxGeometry y="52" width="242.5" height="26" as="geometry" />
        </mxCell>
        <mxCell id="-SkAeLWxzW13uVKJ9q1q-80" value="&lt;font style=&quot;font-size: 10px;&quot;&gt;+ updateSubmissionById(submmisionId:string):json&lt;/font&gt;" style="text;strokeColor=none;fillColor=none;align=left;verticalAlign=top;spacingLeft=4;spacingRight=4;overflow=hidden;rotatable=0;points=[[0,0.5],[1,0.5]];portConstraint=eastwest;whiteSpace=wrap;html=1;" parent="-SkAeLWxzW13uVKJ9q1q-77" vertex="1">
          <mxGeometry y="78" width="242.5" height="26" as="geometry" />
        </mxCell>
        <mxCell id="-SkAeLWxzW13uVKJ9q1q-81" value="&lt;font style=&quot;font-size: 10px;&quot;&gt;+ getSubmissionById(submmisionId:string):json&lt;/font&gt;" style="text;strokeColor=none;fillColor=none;align=left;verticalAlign=top;spacingLeft=4;spacingRight=4;overflow=hidden;rotatable=0;points=[[0,0.5],[1,0.5]];portConstraint=eastwest;whiteSpace=wrap;html=1;" parent="-SkAeLWxzW13uVKJ9q1q-77" vertex="1">
          <mxGeometry y="104" width="242.5" height="26" as="geometry" />
        </mxCell>
        <mxCell id="-SkAeLWxzW13uVKJ9q1q-82" value="&lt;font style=&quot;font-size: 10px;&quot;&gt;+ deleteSubmissionById(submmisionId:string):json&lt;/font&gt;" style="text;strokeColor=none;fillColor=none;align=left;verticalAlign=top;spacingLeft=4;spacingRight=4;overflow=hidden;rotatable=0;points=[[0,0.5],[1,0.5]];portConstraint=eastwest;whiteSpace=wrap;html=1;" parent="-SkAeLWxzW13uVKJ9q1q-77" vertex="1">
          <mxGeometry y="130" width="242.5" height="26" as="geometry" />
        </mxCell>
        <mxCell id="-SkAeLWxzW13uVKJ9q1q-83" value="Problem" style="swimlane;fontStyle=0;childLayout=stackLayout;horizontal=1;startSize=26;fillColor=none;horizontalStack=0;resizeParent=1;resizeParentMax=0;resizeLast=0;collapsible=1;marginBottom=0;whiteSpace=wrap;html=1;" parent="1" vertex="1" collapsed="1">
          <mxGeometry x="-255" y="350" width="90" height="30" as="geometry">
            <mxRectangle x="740" y="-139" width="140" height="260" as="alternateBounds" />
          </mxGeometry>
        </mxCell>
        <mxCell id="-SkAeLWxzW13uVKJ9q1q-84" value="-title:String" style="text;strokeColor=none;fillColor=none;align=left;verticalAlign=top;spacingLeft=4;spacingRight=4;overflow=hidden;rotatable=0;points=[[0,0.5],[1,0.5]];portConstraint=eastwest;whiteSpace=wrap;html=1;" parent="-SkAeLWxzW13uVKJ9q1q-83" vertex="1">
          <mxGeometry y="26" width="140" height="26" as="geometry" />
        </mxCell>
        <mxCell id="-SkAeLWxzW13uVKJ9q1q-85" value="-statment:String" style="text;strokeColor=none;fillColor=none;align=left;verticalAlign=top;spacingLeft=4;spacingRight=4;overflow=hidden;rotatable=0;points=[[0,0.5],[1,0.5]];portConstraint=eastwest;whiteSpace=wrap;html=1;" parent="-SkAeLWxzW13uVKJ9q1q-83" vertex="1">
          <mxGeometry y="52" width="140" height="26" as="geometry" />
        </mxCell>
        <mxCell id="-SkAeLWxzW13uVKJ9q1q-88" value="-input:String" style="text;strokeColor=none;fillColor=none;align=left;verticalAlign=top;spacingLeft=4;spacingRight=4;overflow=hidden;rotatable=0;points=[[0,0.5],[1,0.5]];portConstraint=eastwest;whiteSpace=wrap;html=1;" parent="-SkAeLWxzW13uVKJ9q1q-83" vertex="1">
          <mxGeometry y="78" width="140" height="26" as="geometry" />
        </mxCell>
        <mxCell id="-SkAeLWxzW13uVKJ9q1q-86" value="-output: String" style="text;strokeColor=none;fillColor=none;align=left;verticalAlign=top;spacingLeft=4;spacingRight=4;overflow=hidden;rotatable=0;points=[[0,0.5],[1,0.5]];portConstraint=eastwest;whiteSpace=wrap;html=1;" parent="-SkAeLWxzW13uVKJ9q1q-83" vertex="1">
          <mxGeometry y="104" width="140" height="26" as="geometry" />
        </mxCell>
        <mxCell id="-SkAeLWxzW13uVKJ9q1q-93" value="-note:String" style="text;strokeColor=none;fillColor=none;align=left;verticalAlign=top;spacingLeft=4;spacingRight=4;overflow=hidden;rotatable=0;points=[[0,0.5],[1,0.5]];portConstraint=eastwest;whiteSpace=wrap;html=1;" parent="-SkAeLWxzW13uVKJ9q1q-83" vertex="1">
          <mxGeometry y="130" width="140" height="26" as="geometry" />
        </mxCell>
        <mxCell id="-SkAeLWxzW13uVKJ9q1q-94" value="-timelimit:String" style="text;strokeColor=none;fillColor=none;align=left;verticalAlign=top;spacingLeft=4;spacingRight=4;overflow=hidden;rotatable=0;points=[[0,0.5],[1,0.5]];portConstraint=eastwest;whiteSpace=wrap;html=1;" parent="-SkAeLWxzW13uVKJ9q1q-83" vertex="1">
          <mxGeometry y="156" width="140" height="26" as="geometry" />
        </mxCell>
        <mxCell id="-SkAeLWxzW13uVKJ9q1q-92" value="-memoryLimt:String" style="text;strokeColor=none;fillColor=none;align=left;verticalAlign=top;spacingLeft=4;spacingRight=4;overflow=hidden;rotatable=0;points=[[0,0.5],[1,0.5]];portConstraint=eastwest;whiteSpace=wrap;html=1;" parent="-SkAeLWxzW13uVKJ9q1q-83" vertex="1">
          <mxGeometry y="182" width="140" height="26" as="geometry" />
        </mxCell>
        <mxCell id="-SkAeLWxzW13uVKJ9q1q-90" value="-tags:String[]" style="text;strokeColor=none;fillColor=none;align=left;verticalAlign=top;spacingLeft=4;spacingRight=4;overflow=hidden;rotatable=0;points=[[0,0.5],[1,0.5]];portConstraint=eastwest;whiteSpace=wrap;html=1;" parent="-SkAeLWxzW13uVKJ9q1q-83" vertex="1">
          <mxGeometry y="208" width="140" height="26" as="geometry" />
        </mxCell>
        <mxCell id="-SkAeLWxzW13uVKJ9q1q-89" value="- _id: ObjectId" style="text;strokeColor=none;fillColor=none;align=left;verticalAlign=top;spacingLeft=4;spacingRight=4;overflow=hidden;rotatable=0;points=[[0,0.5],[1,0.5]];portConstraint=eastwest;whiteSpace=wrap;html=1;" parent="-SkAeLWxzW13uVKJ9q1q-83" vertex="1">
          <mxGeometry y="234" width="140" height="26" as="geometry" />
        </mxCell>
        <mxCell id="-SkAeLWxzW13uVKJ9q1q-95" value="TestCase" style="swimlane;fontStyle=0;childLayout=stackLayout;horizontal=1;startSize=26;fillColor=none;horizontalStack=0;resizeParent=1;resizeParentMax=0;resizeLast=0;collapsible=1;marginBottom=0;whiteSpace=wrap;html=1;" parent="1" vertex="1" collapsed="1">
          <mxGeometry x="-435" y="350" width="90" height="30" as="geometry">
            <mxRectangle x="525" y="-40" width="175" height="130" as="alternateBounds" />
          </mxGeometry>
        </mxCell>
        <mxCell id="-SkAeLWxzW13uVKJ9q1q-96" value="-input:String" style="text;strokeColor=none;fillColor=none;align=left;verticalAlign=top;spacingLeft=4;spacingRight=4;overflow=hidden;rotatable=0;points=[[0,0.5],[1,0.5]];portConstraint=eastwest;whiteSpace=wrap;html=1;" parent="-SkAeLWxzW13uVKJ9q1q-95" vertex="1">
          <mxGeometry y="26" width="175" height="26" as="geometry" />
        </mxCell>
        <mxCell id="-SkAeLWxzW13uVKJ9q1q-97" value="-output:String" style="text;strokeColor=none;fillColor=none;align=left;verticalAlign=top;spacingLeft=4;spacingRight=4;overflow=hidden;rotatable=0;points=[[0,0.5],[1,0.5]];portConstraint=eastwest;whiteSpace=wrap;html=1;" parent="-SkAeLWxzW13uVKJ9q1q-95" vertex="1">
          <mxGeometry y="52" width="175" height="26" as="geometry" />
        </mxCell>
        <mxCell id="-SkAeLWxzW13uVKJ9q1q-111" value="-problemId:ObjectId(Problem)" style="text;strokeColor=none;fillColor=none;align=left;verticalAlign=top;spacingLeft=4;spacingRight=4;overflow=hidden;rotatable=0;points=[[0,0.5],[1,0.5]];portConstraint=eastwest;whiteSpace=wrap;html=1;" parent="-SkAeLWxzW13uVKJ9q1q-95" vertex="1">
          <mxGeometry y="78" width="175" height="26" as="geometry" />
        </mxCell>
        <mxCell id="-SkAeLWxzW13uVKJ9q1q-98" value="- _id: ObjectId" style="text;strokeColor=none;fillColor=none;align=left;verticalAlign=top;spacingLeft=4;spacingRight=4;overflow=hidden;rotatable=0;points=[[0,0.5],[1,0.5]];portConstraint=eastwest;whiteSpace=wrap;html=1;" parent="-SkAeLWxzW13uVKJ9q1q-95" vertex="1">
          <mxGeometry y="104" width="175" height="26" as="geometry" />
        </mxCell>
        <mxCell id="-SkAeLWxzW13uVKJ9q1q-99" value="problemController" style="swimlane;fontStyle=0;childLayout=stackLayout;horizontal=1;startSize=26;fillColor=none;horizontalStack=0;resizeParent=1;resizeParentMax=0;resizeLast=0;collapsible=1;marginBottom=0;whiteSpace=wrap;html=1;" parent="1" vertex="1" collapsed="1">
          <mxGeometry x="-280" y="419" width="140" height="30" as="geometry">
            <mxRectangle x="1340" y="340" width="220" height="156" as="alternateBounds" />
          </mxGeometry>
        </mxCell>
        <mxCell id="-SkAeLWxzW13uVKJ9q1q-100" value="&lt;font style=&quot;font-size: 11px;&quot;&gt;+createProblem(title,statment,..:string):json&lt;/font&gt;" style="text;strokeColor=none;fillColor=none;align=left;verticalAlign=top;spacingLeft=4;spacingRight=4;overflow=hidden;rotatable=0;points=[[0,0.5],[1,0.5]];portConstraint=eastwest;whiteSpace=wrap;html=1;" parent="-SkAeLWxzW13uVKJ9q1q-99" vertex="1">
          <mxGeometry y="26" width="220" height="26" as="geometry" />
        </mxCell>
        <mxCell id="-SkAeLWxzW13uVKJ9q1q-101" value="+ getAllProblems():json" style="text;strokeColor=none;fillColor=none;align=left;verticalAlign=top;spacingLeft=4;spacingRight=4;overflow=hidden;rotatable=0;points=[[0,0.5],[1,0.5]];portConstraint=eastwest;whiteSpace=wrap;html=1;" parent="-SkAeLWxzW13uVKJ9q1q-99" vertex="1">
          <mxGeometry y="52" width="220" height="26" as="geometry" />
        </mxCell>
        <mxCell id="-SkAeLWxzW13uVKJ9q1q-102" value="&lt;font style=&quot;font-size: 10px;&quot;&gt;+ updateProblemById(problemId:string):json&lt;/font&gt;" style="text;strokeColor=none;fillColor=none;align=left;verticalAlign=top;spacingLeft=4;spacingRight=4;overflow=hidden;rotatable=0;points=[[0,0.5],[1,0.5]];portConstraint=eastwest;whiteSpace=wrap;html=1;" parent="-SkAeLWxzW13uVKJ9q1q-99" vertex="1">
          <mxGeometry y="78" width="220" height="26" as="geometry" />
        </mxCell>
        <mxCell id="-SkAeLWxzW13uVKJ9q1q-103" value="&lt;font style=&quot;font-size: 11px;&quot;&gt;+ getProblemById(problemId:string):json&lt;/font&gt;" style="text;strokeColor=none;fillColor=none;align=left;verticalAlign=top;spacingLeft=4;spacingRight=4;overflow=hidden;rotatable=0;points=[[0,0.5],[1,0.5]];portConstraint=eastwest;whiteSpace=wrap;html=1;" parent="-SkAeLWxzW13uVKJ9q1q-99" vertex="1">
          <mxGeometry y="104" width="220" height="26" as="geometry" />
        </mxCell>
        <mxCell id="-SkAeLWxzW13uVKJ9q1q-104" value="+ deleteProblemById(problemId):json" style="text;strokeColor=none;fillColor=none;align=left;verticalAlign=top;spacingLeft=4;spacingRight=4;overflow=hidden;rotatable=0;points=[[0,0.5],[1,0.5]];portConstraint=eastwest;whiteSpace=wrap;html=1;" parent="-SkAeLWxzW13uVKJ9q1q-99" vertex="1">
          <mxGeometry y="130" width="220" height="26" as="geometry" />
        </mxCell>
        <mxCell id="-SkAeLWxzW13uVKJ9q1q-105" value="testCastController" style="swimlane;fontStyle=0;childLayout=stackLayout;horizontal=1;startSize=26;fillColor=none;horizontalStack=0;resizeParent=1;resizeParentMax=0;resizeLast=0;collapsible=1;marginBottom=0;whiteSpace=wrap;html=1;" parent="1" vertex="1" collapsed="1">
          <mxGeometry x="-460" y="419" width="140" height="30" as="geometry">
            <mxRectangle x="1357.5" y="720" width="232.5" height="182" as="alternateBounds" />
          </mxGeometry>
        </mxCell>
        <mxCell id="-SkAeLWxzW13uVKJ9q1q-106" value="+createTestCase(input,output,..:string):json" style="text;strokeColor=none;fillColor=none;align=left;verticalAlign=top;spacingLeft=4;spacingRight=4;overflow=hidden;rotatable=0;points=[[0,0.5],[1,0.5]];portConstraint=eastwest;whiteSpace=wrap;html=1;" parent="-SkAeLWxzW13uVKJ9q1q-105" vertex="1">
          <mxGeometry y="26" width="232.5" height="26" as="geometry" />
        </mxCell>
        <mxCell id="-SkAeLWxzW13uVKJ9q1q-107" value="+ getAllTestCases():json" style="text;strokeColor=none;fillColor=none;align=left;verticalAlign=top;spacingLeft=4;spacingRight=4;overflow=hidden;rotatable=0;points=[[0,0.5],[1,0.5]];portConstraint=eastwest;whiteSpace=wrap;html=1;" parent="-SkAeLWxzW13uVKJ9q1q-105" vertex="1">
          <mxGeometry y="52" width="232.5" height="26" as="geometry" />
        </mxCell>
        <mxCell id="-SkAeLWxzW13uVKJ9q1q-108" value="+ updateTestCaseById(testId:string):json" style="text;strokeColor=none;fillColor=none;align=left;verticalAlign=top;spacingLeft=4;spacingRight=4;overflow=hidden;rotatable=0;points=[[0,0.5],[1,0.5]];portConstraint=eastwest;whiteSpace=wrap;html=1;" parent="-SkAeLWxzW13uVKJ9q1q-105" vertex="1">
          <mxGeometry y="78" width="232.5" height="26" as="geometry" />
        </mxCell>
        <mxCell id="-SkAeLWxzW13uVKJ9q1q-109" value="+ getTestCaseById(testId:string):json" style="text;strokeColor=none;fillColor=none;align=left;verticalAlign=top;spacingLeft=4;spacingRight=4;overflow=hidden;rotatable=0;points=[[0,0.5],[1,0.5]];portConstraint=eastwest;whiteSpace=wrap;html=1;" parent="-SkAeLWxzW13uVKJ9q1q-105" vertex="1">
          <mxGeometry y="104" width="232.5" height="26" as="geometry" />
        </mxCell>
        <mxCell id="-SkAeLWxzW13uVKJ9q1q-112" value="+ getProblemTestCases():json" style="text;strokeColor=none;fillColor=none;align=left;verticalAlign=top;spacingLeft=4;spacingRight=4;overflow=hidden;rotatable=0;points=[[0,0.5],[1,0.5]];portConstraint=eastwest;whiteSpace=wrap;html=1;" parent="-SkAeLWxzW13uVKJ9q1q-105" vertex="1">
          <mxGeometry y="130" width="232.5" height="26" as="geometry" />
        </mxCell>
        <mxCell id="-SkAeLWxzW13uVKJ9q1q-110" value="+ deleteTestCaseById(testId:string):json" style="text;strokeColor=none;fillColor=none;align=left;verticalAlign=top;spacingLeft=4;spacingRight=4;overflow=hidden;rotatable=0;points=[[0,0.5],[1,0.5]];portConstraint=eastwest;whiteSpace=wrap;html=1;" parent="-SkAeLWxzW13uVKJ9q1q-105" vertex="1">
          <mxGeometry y="156" width="232.5" height="26" as="geometry" />
        </mxCell>
        <mxCell id="-SkAeLWxzW13uVKJ9q1q-113" value="Chat" style="swimlane;fontStyle=0;childLayout=stackLayout;horizontal=1;startSize=26;fillColor=none;horizontalStack=0;resizeParent=1;resizeParentMax=0;resizeLast=0;collapsible=1;marginBottom=0;whiteSpace=wrap;html=1;" parent="1" vertex="1" collapsed="1">
          <mxGeometry x="540" y="160" width="70" height="30" as="geometry">
            <mxRectangle x="640" y="540" width="200" height="130" as="alternateBounds" />
          </mxGeometry>
        </mxCell>
        <mxCell id="-SkAeLWxzW13uVKJ9q1q-114" value="-name:String" style="text;strokeColor=none;fillColor=none;align=left;verticalAlign=top;spacingLeft=4;spacingRight=4;overflow=hidden;rotatable=0;points=[[0,0.5],[1,0.5]];portConstraint=eastwest;whiteSpace=wrap;html=1;" parent="-SkAeLWxzW13uVKJ9q1q-113" vertex="1">
          <mxGeometry y="26" width="200" height="26" as="geometry" />
        </mxCell>
        <mxCell id="-SkAeLWxzW13uVKJ9q1q-115" value="-chaterId:ObjectId" style="text;strokeColor=none;fillColor=none;align=left;verticalAlign=top;spacingLeft=4;spacingRight=4;overflow=hidden;rotatable=0;points=[[0,0.5],[1,0.5]];portConstraint=eastwest;whiteSpace=wrap;html=1;" parent="-SkAeLWxzW13uVKJ9q1q-113" vertex="1">
          <mxGeometry y="52" width="200" height="26" as="geometry" />
        </mxCell>
        <mxCell id="-SkAeLWxzW13uVKJ9q1q-119" value="-createdAt:Date" style="text;strokeColor=none;fillColor=none;align=left;verticalAlign=top;spacingLeft=4;spacingRight=4;overflow=hidden;rotatable=0;points=[[0,0.5],[1,0.5]];portConstraint=eastwest;whiteSpace=wrap;html=1;" parent="-SkAeLWxzW13uVKJ9q1q-113" vertex="1">
          <mxGeometry y="78" width="200" height="26" as="geometry" />
        </mxCell>
        <mxCell id="-SkAeLWxzW13uVKJ9q1q-126" value="- _id: ObjectId" style="text;strokeColor=none;fillColor=none;align=left;verticalAlign=top;spacingLeft=4;spacingRight=4;overflow=hidden;rotatable=0;points=[[0,0.5],[1,0.5]];portConstraint=eastwest;whiteSpace=wrap;html=1;" parent="-SkAeLWxzW13uVKJ9q1q-113" vertex="1">
          <mxGeometry y="104" width="200" height="26" as="geometry" />
        </mxCell>
        <mxCell id="-SkAeLWxzW13uVKJ9q1q-120" value="chatController" style="swimlane;fontStyle=0;childLayout=stackLayout;horizontal=1;startSize=26;fillColor=none;horizontalStack=0;resizeParent=1;resizeParentMax=0;resizeLast=0;collapsible=1;marginBottom=0;whiteSpace=wrap;html=1;" parent="1" vertex="1" collapsed="1">
          <mxGeometry x="510" y="240" width="120" height="30" as="geometry">
            <mxRectangle x="640" y="750" width="230" height="156" as="alternateBounds" />
          </mxGeometry>
        </mxCell>
        <mxCell id="-SkAeLWxzW13uVKJ9q1q-121" value="+ createChat(chlanId,name:String):json" style="text;strokeColor=none;fillColor=none;align=left;verticalAlign=top;spacingLeft=4;spacingRight=4;overflow=hidden;rotatable=0;points=[[0,0.5],[1,0.5]];portConstraint=eastwest;whiteSpace=wrap;html=1;" parent="-SkAeLWxzW13uVKJ9q1q-120" vertex="1">
          <mxGeometry y="26" width="230" height="26" as="geometry" />
        </mxCell>
        <mxCell id="-SkAeLWxzW13uVKJ9q1q-122" value="+ getAllChats():json" style="text;strokeColor=none;fillColor=none;align=left;verticalAlign=top;spacingLeft=4;spacingRight=4;overflow=hidden;rotatable=0;points=[[0,0.5],[1,0.5]];portConstraint=eastwest;whiteSpace=wrap;html=1;" parent="-SkAeLWxzW13uVKJ9q1q-120" vertex="1">
          <mxGeometry y="52" width="230" height="26" as="geometry" />
        </mxCell>
        <mxCell id="-SkAeLWxzW13uVKJ9q1q-123" value="+ updateChatById(chatId:String):json" style="text;strokeColor=none;fillColor=none;align=left;verticalAlign=top;spacingLeft=4;spacingRight=4;overflow=hidden;rotatable=0;points=[[0,0.5],[1,0.5]];portConstraint=eastwest;whiteSpace=wrap;html=1;" parent="-SkAeLWxzW13uVKJ9q1q-120" vertex="1">
          <mxGeometry y="78" width="230" height="26" as="geometry" />
        </mxCell>
        <mxCell id="-SkAeLWxzW13uVKJ9q1q-124" value="+ getChatById(chatId:String):json" style="text;strokeColor=none;fillColor=none;align=left;verticalAlign=top;spacingLeft=4;spacingRight=4;overflow=hidden;rotatable=0;points=[[0,0.5],[1,0.5]];portConstraint=eastwest;whiteSpace=wrap;html=1;" parent="-SkAeLWxzW13uVKJ9q1q-120" vertex="1">
          <mxGeometry y="104" width="230" height="26" as="geometry" />
        </mxCell>
        <mxCell id="-SkAeLWxzW13uVKJ9q1q-125" value="+ deleteChatById(chatId:String):json" style="text;strokeColor=none;fillColor=none;align=left;verticalAlign=top;spacingLeft=4;spacingRight=4;overflow=hidden;rotatable=0;points=[[0,0.5],[1,0.5]];portConstraint=eastwest;whiteSpace=wrap;html=1;" parent="-SkAeLWxzW13uVKJ9q1q-120" vertex="1">
          <mxGeometry y="130" width="230" height="26" as="geometry" />
        </mxCell>
        <mxCell id="-SkAeLWxzW13uVKJ9q1q-127" value="Message" style="swimlane;fontStyle=0;childLayout=stackLayout;horizontal=1;startSize=26;fillColor=none;horizontalStack=0;resizeParent=1;resizeParentMax=0;resizeLast=0;collapsible=1;marginBottom=0;whiteSpace=wrap;html=1;" parent="1" vertex="1" collapsed="1">
          <mxGeometry x="320" y="160" width="90" height="30" as="geometry">
            <mxRectangle x="660" y="960" width="140" height="130" as="alternateBounds" />
          </mxGeometry>
        </mxCell>
        <mxCell id="-SkAeLWxzW13uVKJ9q1q-128" value="-userId: ObjectId(Coder)" style="text;strokeColor=none;fillColor=none;align=left;verticalAlign=top;spacingLeft=4;spacingRight=4;overflow=hidden;rotatable=0;points=[[0,0.5],[1,0.5]];portConstraint=eastwest;whiteSpace=wrap;html=1;" parent="-SkAeLWxzW13uVKJ9q1q-127" vertex="1">
          <mxGeometry y="26" width="140" height="26" as="geometry" />
        </mxCell>
        <mxCell id="-SkAeLWxzW13uVKJ9q1q-129" value="-chatId: ObjectId(Chat)" style="text;strokeColor=none;fillColor=none;align=left;verticalAlign=top;spacingLeft=4;spacingRight=4;overflow=hidden;rotatable=0;points=[[0,0.5],[1,0.5]];portConstraint=eastwest;whiteSpace=wrap;html=1;" parent="-SkAeLWxzW13uVKJ9q1q-127" vertex="1">
          <mxGeometry y="52" width="140" height="26" as="geometry" />
        </mxCell>
        <mxCell id="-SkAeLWxzW13uVKJ9q1q-130" value="-mesaage:String" style="text;strokeColor=none;fillColor=none;align=left;verticalAlign=top;spacingLeft=4;spacingRight=4;overflow=hidden;rotatable=0;points=[[0,0.5],[1,0.5]];portConstraint=eastwest;whiteSpace=wrap;html=1;" parent="-SkAeLWxzW13uVKJ9q1q-127" vertex="1">
          <mxGeometry y="78" width="140" height="26" as="geometry" />
        </mxCell>
        <mxCell id="-SkAeLWxzW13uVKJ9q1q-135" value="-CreatedAt:Date" style="text;strokeColor=none;fillColor=none;align=left;verticalAlign=top;spacingLeft=4;spacingRight=4;overflow=hidden;rotatable=0;points=[[0,0.5],[1,0.5]];portConstraint=eastwest;whiteSpace=wrap;html=1;" parent="-SkAeLWxzW13uVKJ9q1q-127" vertex="1">
          <mxGeometry y="104" width="140" height="26" as="geometry" />
        </mxCell>
        <mxCell id="-SkAeLWxzW13uVKJ9q1q-137" value="messageController" style="swimlane;fontStyle=0;childLayout=stackLayout;horizontal=1;startSize=26;fillColor=none;horizontalStack=0;resizeParent=1;resizeParentMax=0;resizeLast=0;collapsible=1;marginBottom=0;whiteSpace=wrap;html=1;" parent="1" vertex="1" collapsed="1">
          <mxGeometry x="330" y="240" width="140" height="30" as="geometry">
            <mxRectangle x="590" y="1140" width="290" height="208" as="alternateBounds" />
          </mxGeometry>
        </mxCell>
        <mxCell id="-SkAeLWxzW13uVKJ9q1q-138" value="+createMessage(chatId,userId,message:String):json" style="text;strokeColor=none;fillColor=none;align=left;verticalAlign=top;spacingLeft=4;spacingRight=4;overflow=hidden;rotatable=0;points=[[0,0.5],[1,0.5]];portConstraint=eastwest;whiteSpace=wrap;html=1;" parent="-SkAeLWxzW13uVKJ9q1q-137" vertex="1">
          <mxGeometry y="26" width="290" height="26" as="geometry" />
        </mxCell>
        <mxCell id="-SkAeLWxzW13uVKJ9q1q-139" value="+ getAllMessages():json" style="text;strokeColor=none;fillColor=none;align=left;verticalAlign=top;spacingLeft=4;spacingRight=4;overflow=hidden;rotatable=0;points=[[0,0.5],[1,0.5]];portConstraint=eastwest;whiteSpace=wrap;html=1;" parent="-SkAeLWxzW13uVKJ9q1q-137" vertex="1">
          <mxGeometry y="52" width="290" height="26" as="geometry" />
        </mxCell>
        <mxCell id="-SkAeLWxzW13uVKJ9q1q-140" value="&lt;font style=&quot;font-size: 11px;&quot;&gt;+ getMessageById(messageId:String):json&lt;/font&gt;" style="text;strokeColor=none;fillColor=none;align=left;verticalAlign=top;spacingLeft=4;spacingRight=4;overflow=hidden;rotatable=0;points=[[0,0.5],[1,0.5]];portConstraint=eastwest;whiteSpace=wrap;html=1;" parent="-SkAeLWxzW13uVKJ9q1q-137" vertex="1">
          <mxGeometry y="78" width="290" height="26" as="geometry" />
        </mxCell>
        <mxCell id="-SkAeLWxzW13uVKJ9q1q-141" value="&lt;font style=&quot;font-size: 10px;&quot;&gt;+ updateMessageById(messageId:String):json&lt;/font&gt;" style="text;strokeColor=none;fillColor=none;align=left;verticalAlign=top;spacingLeft=4;spacingRight=4;overflow=hidden;rotatable=0;points=[[0,0.5],[1,0.5]];portConstraint=eastwest;whiteSpace=wrap;html=1;" parent="-SkAeLWxzW13uVKJ9q1q-137" vertex="1">
          <mxGeometry y="104" width="290" height="26" as="geometry" />
        </mxCell>
        <mxCell id="-SkAeLWxzW13uVKJ9q1q-142" value="&lt;font style=&quot;font-size: 11px;&quot;&gt;+ deleteMessageById(messageId:String):json&lt;/font&gt;" style="text;strokeColor=none;fillColor=none;align=left;verticalAlign=top;spacingLeft=4;spacingRight=4;overflow=hidden;rotatable=0;points=[[0,0.5],[1,0.5]];portConstraint=eastwest;whiteSpace=wrap;html=1;" parent="-SkAeLWxzW13uVKJ9q1q-137" vertex="1">
          <mxGeometry y="130" width="290" height="26" as="geometry" />
        </mxCell>
        <mxCell id="-SkAeLWxzW13uVKJ9q1q-143" value="+getAllUserMessages(userId:String):json" style="text;strokeColor=none;fillColor=none;align=left;verticalAlign=top;spacingLeft=4;spacingRight=4;overflow=hidden;rotatable=0;points=[[0,0.5],[1,0.5]];portConstraint=eastwest;whiteSpace=wrap;html=1;" parent="-SkAeLWxzW13uVKJ9q1q-137" vertex="1">
          <mxGeometry y="156" width="290" height="26" as="geometry" />
        </mxCell>
        <mxCell id="-SkAeLWxzW13uVKJ9q1q-144" value="+getAllChatMessages(chatId:String):json" style="text;strokeColor=none;fillColor=none;align=left;verticalAlign=top;spacingLeft=4;spacingRight=4;overflow=hidden;rotatable=0;points=[[0,0.5],[1,0.5]];portConstraint=eastwest;whiteSpace=wrap;html=1;" parent="-SkAeLWxzW13uVKJ9q1q-137" vertex="1">
          <mxGeometry y="182" width="290" height="26" as="geometry" />
        </mxCell>
        <mxCell id="-SkAeLWxzW13uVKJ9q1q-145" value="Match" style="swimlane;fontStyle=0;childLayout=stackLayout;horizontal=1;startSize=26;fillColor=none;horizontalStack=0;resizeParent=1;resizeParentMax=0;resizeLast=0;collapsible=1;marginBottom=0;whiteSpace=wrap;html=1;" parent="1" vertex="1" collapsed="1">
          <mxGeometry x="70" y="353" width="70" height="30" as="geometry">
            <mxRectangle x="1750" y="20" width="230" height="156" as="alternateBounds" />
          </mxGeometry>
        </mxCell>
        <mxCell id="-SkAeLWxzW13uVKJ9q1q-154" value="-duration: Number" style="text;strokeColor=none;fillColor=none;align=left;verticalAlign=top;spacingLeft=4;spacingRight=4;overflow=hidden;rotatable=0;points=[[0,0.5],[1,0.5]];portConstraint=eastwest;whiteSpace=wrap;html=1;" parent="-SkAeLWxzW13uVKJ9q1q-145" vertex="1">
          <mxGeometry y="26" width="230" height="26" as="geometry" />
        </mxCell>
        <mxCell id="-SkAeLWxzW13uVKJ9q1q-155" value="-winner: String" style="text;strokeColor=none;fillColor=none;align=left;verticalAlign=top;spacingLeft=4;spacingRight=4;overflow=hidden;rotatable=0;points=[[0,0.5],[1,0.5]];portConstraint=eastwest;whiteSpace=wrap;html=1;" parent="-SkAeLWxzW13uVKJ9q1q-145" vertex="1">
          <mxGeometry y="52" width="230" height="26" as="geometry" />
        </mxCell>
        <mxCell id="QZMovM8n5H5LBThOfunk-2" value="-difficulty: String" style="text;strokeColor=none;fillColor=none;align=left;verticalAlign=top;spacingLeft=4;spacingRight=4;overflow=hidden;rotatable=0;points=[[0,0.5],[1,0.5]];portConstraint=eastwest;whiteSpace=wrap;html=1;" parent="-SkAeLWxzW13uVKJ9q1q-145" vertex="1">
          <mxGeometry y="78" width="230" height="26" as="geometry" />
        </mxCell>
        <mxCell id="-SkAeLWxzW13uVKJ9q1q-156" value="-startTime:Date" style="text;strokeColor=none;fillColor=none;align=left;verticalAlign=top;spacingLeft=4;spacingRight=4;overflow=hidden;rotatable=0;points=[[0,0.5],[1,0.5]];portConstraint=eastwest;whiteSpace=wrap;html=1;" parent="-SkAeLWxzW13uVKJ9q1q-145" vertex="1">
          <mxGeometry y="104" width="230" height="26" as="geometry" />
        </mxCell>
        <mxCell id="-SkAeLWxzW13uVKJ9q1q-157" value="-problemset: ObjectId(Problem)[]" style="text;strokeColor=none;fillColor=none;align=left;verticalAlign=top;spacingLeft=4;spacingRight=4;overflow=hidden;rotatable=0;points=[[0,0.5],[1,0.5]];portConstraint=eastwest;whiteSpace=wrap;html=1;" parent="-SkAeLWxzW13uVKJ9q1q-145" vertex="1">
          <mxGeometry y="130" width="230" height="26" as="geometry" />
        </mxCell>
        <mxCell id="-SkAeLWxzW13uVKJ9q1q-160" value="&lt;i&gt;matchController&lt;/i&gt;" style="swimlane;fontStyle=0;childLayout=stackLayout;horizontal=1;startSize=26;fillColor=none;horizontalStack=0;resizeParent=1;resizeParentMax=0;resizeLast=0;collapsible=1;marginBottom=0;whiteSpace=wrap;html=1;" parent="1" vertex="1" collapsed="1">
          <mxGeometry x="-50" y="831" width="130" height="30" as="geometry">
            <mxRectangle x="1620" y="650" width="225" height="130" as="alternateBounds" />
          </mxGeometry>
        </mxCell>
        <mxCell id="-SkAeLWxzW13uVKJ9q1q-161" value="&lt;i&gt;+ playMatch():json&lt;/i&gt;" style="text;strokeColor=none;fillColor=none;align=left;verticalAlign=top;spacingLeft=4;spacingRight=4;overflow=hidden;rotatable=0;points=[[0,0.5],[1,0.5]];portConstraint=eastwest;whiteSpace=wrap;html=1;" parent="-SkAeLWxzW13uVKJ9q1q-160" vertex="1">
          <mxGeometry y="26" width="225" height="26" as="geometry" />
        </mxCell>
        <mxCell id="-SkAeLWxzW13uVKJ9q1q-162" value="+ getAllMatches():json" style="text;strokeColor=none;fillColor=none;align=left;verticalAlign=top;spacingLeft=4;spacingRight=4;overflow=hidden;rotatable=0;points=[[0,0.5],[1,0.5]];portConstraint=eastwest;whiteSpace=wrap;html=1;" parent="-SkAeLWxzW13uVKJ9q1q-160" vertex="1">
          <mxGeometry y="52" width="225" height="26" as="geometry" />
        </mxCell>
        <mxCell id="-SkAeLWxzW13uVKJ9q1q-164" value="+ getMatchById(matchId):json" style="text;strokeColor=none;fillColor=none;align=left;verticalAlign=top;spacingLeft=4;spacingRight=4;overflow=hidden;rotatable=0;points=[[0,0.5],[1,0.5]];portConstraint=eastwest;whiteSpace=wrap;html=1;" parent="-SkAeLWxzW13uVKJ9q1q-160" vertex="1">
          <mxGeometry y="78" width="225" height="26" as="geometry" />
        </mxCell>
        <mxCell id="-SkAeLWxzW13uVKJ9q1q-165" value="+ deleteMatchById(matchId:string):json" style="text;strokeColor=none;fillColor=none;align=left;verticalAlign=top;spacingLeft=4;spacingRight=4;overflow=hidden;rotatable=0;points=[[0,0.5],[1,0.5]];portConstraint=eastwest;whiteSpace=wrap;html=1;" parent="-SkAeLWxzW13uVKJ9q1q-160" vertex="1">
          <mxGeometry y="104" width="225" height="26" as="geometry" />
        </mxCell>
        <mxCell id="-SkAeLWxzW13uVKJ9q1q-171" value="MatchMLModel" style="swimlane;fontStyle=0;childLayout=stackLayout;horizontal=1;startSize=26;fillColor=none;horizontalStack=0;resizeParent=1;resizeParentMax=0;resizeLast=0;collapsible=1;marginBottom=0;whiteSpace=wrap;html=1;" parent="1" vertex="1" collapsed="1">
          <mxGeometry x="375" y="344" width="120" height="30" as="geometry">
            <mxRectangle x="1355" y="-590" width="140" height="104" as="alternateBounds" />
          </mxGeometry>
        </mxCell>
        <mxCell id="-SkAeLWxzW13uVKJ9q1q-172" value="-Model" style="text;strokeColor=none;fillColor=none;align=left;verticalAlign=top;spacingLeft=4;spacingRight=4;overflow=hidden;rotatable=0;points=[[0,0.5],[1,0.5]];portConstraint=eastwest;whiteSpace=wrap;html=1;" parent="-SkAeLWxzW13uVKJ9q1q-171" vertex="1">
          <mxGeometry y="26" width="140" height="26" as="geometry" />
        </mxCell>
        <mxCell id="-SkAeLWxzW13uVKJ9q1q-176" value="-accuracy:Number" style="text;strokeColor=none;fillColor=none;align=left;verticalAlign=top;spacingLeft=4;spacingRight=4;overflow=hidden;rotatable=0;points=[[0,0.5],[1,0.5]];portConstraint=eastwest;whiteSpace=wrap;html=1;" parent="-SkAeLWxzW13uVKJ9q1q-171" vertex="1">
          <mxGeometry y="52" width="140" height="26" as="geometry" />
        </mxCell>
        <mxCell id="-SkAeLWxzW13uVKJ9q1q-175" value="+ pridict()" style="text;strokeColor=none;fillColor=none;align=left;verticalAlign=top;spacingLeft=4;spacingRight=4;overflow=hidden;rotatable=0;points=[[0,0.5],[1,0.5]];portConstraint=eastwest;whiteSpace=wrap;html=1;" parent="-SkAeLWxzW13uVKJ9q1q-171" vertex="1">
          <mxGeometry y="78" width="140" height="26" as="geometry" />
        </mxCell>
        <mxCell id="-SkAeLWxzW13uVKJ9q1q-177" value="CustomMatch" style="swimlane;fontStyle=0;childLayout=stackLayout;horizontal=1;startSize=26;fillColor=none;horizontalStack=0;resizeParent=1;resizeParentMax=0;resizeLast=0;collapsible=1;marginBottom=0;whiteSpace=wrap;html=1;" parent="1" vertex="1" collapsed="1">
          <mxGeometry x="210" y="943.62" width="110" height="30" as="geometry">
            <mxRectangle x="1970" y="852.62" width="155" height="52" as="alternateBounds" />
          </mxGeometry>
        </mxCell>
        <mxCell id="-SkAeLWxzW13uVKJ9q1q-178" value="&lt;i&gt;+ playMatch():json&lt;/i&gt;" style="text;strokeColor=none;fillColor=none;align=left;verticalAlign=top;spacingLeft=4;spacingRight=4;overflow=hidden;rotatable=0;points=[[0,0.5],[1,0.5]];portConstraint=eastwest;whiteSpace=wrap;html=1;" parent="-SkAeLWxzW13uVKJ9q1q-177" vertex="1">
          <mxGeometry y="26" width="155" height="26" as="geometry" />
        </mxCell>
        <mxCell id="-SkAeLWxzW13uVKJ9q1q-184" value="RankedMatch" style="swimlane;fontStyle=0;childLayout=stackLayout;horizontal=1;startSize=26;fillColor=none;horizontalStack=0;resizeParent=1;resizeParentMax=0;resizeLast=0;collapsible=1;marginBottom=0;whiteSpace=wrap;html=1;" parent="1" vertex="1" collapsed="1">
          <mxGeometry x="20" y="943.62" width="110" height="30" as="geometry">
            <mxRectangle x="1780" y="852.62" width="155" height="52" as="alternateBounds" />
          </mxGeometry>
        </mxCell>
        <mxCell id="-SkAeLWxzW13uVKJ9q1q-185" value="&lt;i&gt;+ playMatch():json&lt;/i&gt;" style="text;strokeColor=none;fillColor=none;align=left;verticalAlign=top;spacingLeft=4;spacingRight=4;overflow=hidden;rotatable=0;points=[[0,0.5],[1,0.5]];portConstraint=eastwest;whiteSpace=wrap;html=1;" parent="-SkAeLWxzW13uVKJ9q1q-184" vertex="1">
          <mxGeometry y="26" width="155" height="26" as="geometry" />
        </mxCell>
        <mxCell id="-SkAeLWxzW13uVKJ9q1q-191" value="SoloMatch" style="swimlane;fontStyle=0;childLayout=stackLayout;horizontal=1;startSize=26;fillColor=none;horizontalStack=0;resizeParent=1;resizeParentMax=0;resizeLast=0;collapsible=1;marginBottom=0;whiteSpace=wrap;html=1;" parent="1" vertex="1" collapsed="1">
          <mxGeometry x="-150" y="943.62" width="100" height="30" as="geometry">
            <mxRectangle x="1600" y="852.62" width="155" height="52" as="alternateBounds" />
          </mxGeometry>
        </mxCell>
        <mxCell id="-SkAeLWxzW13uVKJ9q1q-192" value="&lt;i&gt;+ playMatch():json&lt;/i&gt;" style="text;strokeColor=none;fillColor=none;align=left;verticalAlign=top;spacingLeft=4;spacingRight=4;overflow=hidden;rotatable=0;points=[[0,0.5],[1,0.5]];portConstraint=eastwest;whiteSpace=wrap;html=1;" parent="-SkAeLWxzW13uVKJ9q1q-191" vertex="1">
          <mxGeometry y="26" width="155" height="26" as="geometry" />
        </mxCell>
        <mxCell id="-SkAeLWxzW13uVKJ9q1q-211" value="" style="endArrow=block;dashed=1;endFill=0;endSize=12;html=1;rounded=0;exitX=0.5;exitY=0;exitDx=0;exitDy=0;entryX=0.25;entryY=1;entryDx=0;entryDy=0;" parent="1" source="-SkAeLWxzW13uVKJ9q1q-191" edge="1" target="-SkAeLWxzW13uVKJ9q1q-160">
          <mxGeometry width="160" relative="1" as="geometry">
            <mxPoint x="-90.5" y="943.1099999999997" as="sourcePoint" />
            <mxPoint x="-10.475000000000819" y="870.9979999999997" as="targetPoint" />
          </mxGeometry>
        </mxCell>
        <mxCell id="-SkAeLWxzW13uVKJ9q1q-279" value="implement" style="edgeLabel;html=1;align=center;verticalAlign=middle;resizable=0;points=[];" parent="-SkAeLWxzW13uVKJ9q1q-211" vertex="1" connectable="0">
          <mxGeometry x="-0.2149" relative="1" as="geometry">
            <mxPoint as="offset" />
          </mxGeometry>
        </mxCell>
        <mxCell id="-SkAeLWxzW13uVKJ9q1q-212" value="" style="endArrow=block;dashed=1;endFill=0;endSize=12;html=1;rounded=0;exitX=0.295;exitY=0.032;exitDx=0;exitDy=0;exitPerimeter=0;entryX=0.5;entryY=1;entryDx=0;entryDy=0;" parent="1" source="-SkAeLWxzW13uVKJ9q1q-184" edge="1" target="-SkAeLWxzW13uVKJ9q1q-160">
          <mxGeometry width="160" relative="1" as="geometry">
            <mxPoint x="-42" y="952.62" as="sourcePoint" />
            <mxPoint x="23.159999999999854" y="873.5459999999999" as="targetPoint" />
          </mxGeometry>
        </mxCell>
        <mxCell id="-SkAeLWxzW13uVKJ9q1q-213" value="" style="endArrow=block;dashed=1;endFill=0;endSize=12;html=1;rounded=0;exitX=0.106;exitY=-0.029;exitDx=0;exitDy=0;exitPerimeter=0;entryX=0.75;entryY=1;entryDx=0;entryDy=0;" parent="1" source="-SkAeLWxzW13uVKJ9q1q-177" edge="1" target="-SkAeLWxzW13uVKJ9q1q-160">
          <mxGeometry width="160" relative="1" as="geometry">
            <mxPoint x="76" y="955.6199999999999" as="sourcePoint" />
            <mxPoint x="69.9699999999998" y="873.6239999999999" as="targetPoint" />
          </mxGeometry>
        </mxCell>
        <mxCell id="-SkAeLWxzW13uVKJ9q1q-214" value="Use" style="endArrow=open;endSize=12;dashed=1;html=1;rounded=0;exitX=0.5;exitY=1;exitDx=0;exitDy=0;entryX=0.25;entryY=0;entryDx=0;entryDy=0;" parent="1" source="hLQOt44AYmpmIRwFQD5W-5" target="-SkAeLWxzW13uVKJ9q1q-228" edge="1">
          <mxGeometry width="160" relative="1" as="geometry">
            <mxPoint x="90" y="490.59000000000003" as="sourcePoint" />
            <mxPoint x="-20" y="270" as="targetPoint" />
          </mxGeometry>
        </mxCell>
        <mxCell id="-SkAeLWxzW13uVKJ9q1q-215" value="Use" style="endArrow=open;endSize=12;dashed=1;html=1;rounded=0;entryX=0.5;entryY=1;entryDx=0;entryDy=0;exitX=0.54;exitY=-0.028;exitDx=0;exitDy=0;exitPerimeter=0;" parent="1" source="-SkAeLWxzW13uVKJ9q1q-19" edge="1" target="-SkAeLWxzW13uVKJ9q1q-15">
          <mxGeometry width="160" relative="1" as="geometry">
            <mxPoint x="-380.38" y="332.59000000000003" as="sourcePoint" />
            <mxPoint x="-380.27" y="289.99599999999987" as="targetPoint" />
          </mxGeometry>
        </mxCell>
        <mxCell id="-SkAeLWxzW13uVKJ9q1q-216" value="Use" style="endArrow=open;endSize=12;dashed=1;html=1;rounded=0;entryX=0.532;entryY=1.068;entryDx=0;entryDy=0;entryPerimeter=0;exitX=0.5;exitY=0;exitDx=0;exitDy=0;" parent="1" source="-SkAeLWxzW13uVKJ9q1q-10" target="-SkAeLWxzW13uVKJ9q1q-9" edge="1">
          <mxGeometry width="160" relative="1" as="geometry">
            <mxPoint x="-255.23000000000002" y="322.59000000000003" as="sourcePoint" />
            <mxPoint x="-255.12" y="279.99599999999987" as="targetPoint" />
          </mxGeometry>
        </mxCell>
        <mxCell id="-SkAeLWxzW13uVKJ9q1q-217" value="Use" style="endArrow=open;endSize=12;dashed=1;html=1;rounded=0;entryX=0.5;entryY=1;entryDx=0;entryDy=0;exitX=0.5;exitY=0;exitDx=0;exitDy=0;" parent="1" edge="1" target="-SkAeLWxzW13uVKJ9q1q-23" source="-SkAeLWxzW13uVKJ9q1q-29">
          <mxGeometry width="160" relative="1" as="geometry">
            <mxPoint x="-85" y="376" as="sourcePoint" />
            <mxPoint x="-95" y="266" as="targetPoint" />
          </mxGeometry>
        </mxCell>
        <mxCell id="-SkAeLWxzW13uVKJ9q1q-218" value="Use" style="endArrow=open;endSize=12;dashed=1;html=1;rounded=0;entryX=0.462;entryY=1.173;entryDx=0;entryDy=0;entryPerimeter=0;exitX=0.5;exitY=0;exitDx=0;exitDy=0;" parent="1" target="-SkAeLWxzW13uVKJ9q1q-42" edge="1" source="-SkAeLWxzW13uVKJ9q1q-43">
          <mxGeometry width="160" relative="1" as="geometry">
            <mxPoint x="604.5" y="678" as="sourcePoint" />
            <mxPoint x="604.5" y="632" as="targetPoint" />
          </mxGeometry>
        </mxCell>
        <mxCell id="-SkAeLWxzW13uVKJ9q1q-219" value="Use" style="endArrow=open;endSize=12;dashed=1;html=1;rounded=0;entryX=0.505;entryY=1.154;entryDx=0;entryDy=0;entryPerimeter=0;exitX=0.5;exitY=0;exitDx=0;exitDy=0;" parent="1" source="-SkAeLWxzW13uVKJ9q1q-57" target="-SkAeLWxzW13uVKJ9q1q-56" edge="1">
          <mxGeometry width="160" relative="1" as="geometry">
            <mxPoint x="219.5" y="310" as="sourcePoint" />
            <mxPoint x="219.5" y="264" as="targetPoint" />
          </mxGeometry>
        </mxCell>
        <mxCell id="-SkAeLWxzW13uVKJ9q1q-220" value="Use" style="endArrow=open;endSize=12;dashed=1;html=1;rounded=0;entryX=0.498;entryY=1.179;entryDx=0;entryDy=0;entryPerimeter=0;exitX=0.5;exitY=0;exitDx=0;exitDy=0;" parent="1" target="-SkAeLWxzW13uVKJ9q1q-87" edge="1" source="-SkAeLWxzW13uVKJ9q1q-77">
          <mxGeometry width="160" relative="1" as="geometry">
            <mxPoint x="334.5" y="437" as="sourcePoint" />
            <mxPoint x="334.5" y="391" as="targetPoint" />
          </mxGeometry>
        </mxCell>
        <mxCell id="-SkAeLWxzW13uVKJ9q1q-221" value="Use" style="endArrow=open;endSize=12;dashed=1;html=1;rounded=0;exitX=0.5;exitY=0;exitDx=0;exitDy=0;entryX=0.5;entryY=1;entryDx=0;entryDy=0;" parent="1" source="-SkAeLWxzW13uVKJ9q1q-99" edge="1" target="-SkAeLWxzW13uVKJ9q1q-83">
          <mxGeometry width="160" relative="1" as="geometry">
            <mxPoint x="-189.1500000000001" y="620" as="sourcePoint" />
            <mxPoint x="-227.5" y="478" as="targetPoint" />
          </mxGeometry>
        </mxCell>
        <mxCell id="-SkAeLWxzW13uVKJ9q1q-222" value="Use" style="endArrow=open;endSize=12;dashed=1;html=1;rounded=0;entryX=0.5;entryY=1;entryDx=0;entryDy=0;exitX=0.5;exitY=0;exitDx=0;exitDy=0;" parent="1" edge="1" target="-SkAeLWxzW13uVKJ9q1q-95" source="-SkAeLWxzW13uVKJ9q1q-105">
          <mxGeometry width="160" relative="1" as="geometry">
            <mxPoint x="-390" y="420" as="sourcePoint" />
            <mxPoint x="-395" y="450" as="targetPoint" />
            <mxPoint as="offset" />
          </mxGeometry>
        </mxCell>
        <mxCell id="-SkAeLWxzW13uVKJ9q1q-224" value="Admin" style="swimlane;fontStyle=0;childLayout=stackLayout;horizontal=1;startSize=26;fillColor=none;horizontalStack=0;resizeParent=1;resizeParentMax=0;resizeLast=0;collapsible=1;marginBottom=0;whiteSpace=wrap;html=1;" parent="1" vertex="1" collapsed="1">
          <mxGeometry x="-135" y="-90" width="70" height="30" as="geometry">
            <mxRectangle x="-195" y="-110" width="140" height="52" as="alternateBounds" />
          </mxGeometry>
        </mxCell>
        <mxCell id="-SkAeLWxzW13uVKJ9q1q-228" value="User" style="swimlane;fontStyle=0;childLayout=stackLayout;horizontal=1;startSize=26;fillColor=none;horizontalStack=0;resizeParent=1;resizeParentMax=0;resizeLast=0;collapsible=1;marginBottom=0;whiteSpace=wrap;html=1;" parent="1" vertex="1" collapsed="1">
          <mxGeometry x="-10" y="-150" width="70" height="30" as="geometry">
            <mxRectangle x="-40" y="-150" width="140" height="290" as="alternateBounds" />
          </mxGeometry>
        </mxCell>
        <mxCell id="hLQOt44AYmpmIRwFQD5W-2" value="- username: String" style="text;strokeColor=none;fillColor=none;align=left;verticalAlign=top;spacingLeft=4;spacingRight=4;overflow=hidden;rotatable=0;points=[[0,0.5],[1,0.5]];portConstraint=eastwest;whiteSpace=wrap;html=1;" parent="-SkAeLWxzW13uVKJ9q1q-228" vertex="1">
          <mxGeometry y="26" width="140" height="26" as="geometry" />
        </mxCell>
        <mxCell id="hLQOt44AYmpmIRwFQD5W-3" value="- email: String" style="text;strokeColor=none;fillColor=none;align=left;verticalAlign=top;spacingLeft=4;spacingRight=4;overflow=hidden;rotatable=0;points=[[0,0.5],[1,0.5]];portConstraint=eastwest;whiteSpace=wrap;html=1;" parent="-SkAeLWxzW13uVKJ9q1q-228" vertex="1">
          <mxGeometry y="52" width="140" height="26" as="geometry" />
        </mxCell>
        <mxCell id="hLQOt44AYmpmIRwFQD5W-4" value="- password: String" style="text;strokeColor=none;fillColor=none;align=left;verticalAlign=top;spacingLeft=4;spacingRight=4;overflow=hidden;rotatable=0;points=[[0,0.5],[1,0.5]];portConstraint=eastwest;whiteSpace=wrap;html=1;" parent="-SkAeLWxzW13uVKJ9q1q-228" vertex="1">
          <mxGeometry y="78" width="140" height="26" as="geometry" />
        </mxCell>
        <mxCell id="j1QVro5xEkpUKLc03D5Q-1" value="- firstname: String" style="text;strokeColor=none;fillColor=none;align=left;verticalAlign=top;spacingLeft=4;spacingRight=4;overflow=hidden;rotatable=0;points=[[0,0.5],[1,0.5]];portConstraint=eastwest;whiteSpace=wrap;html=1;" parent="-SkAeLWxzW13uVKJ9q1q-228" vertex="1">
          <mxGeometry y="104" width="140" height="30" as="geometry" />
        </mxCell>
        <mxCell id="j1QVro5xEkpUKLc03D5Q-2" value="- lastname: String" style="text;strokeColor=none;fillColor=none;align=left;verticalAlign=top;spacingLeft=4;spacingRight=4;overflow=hidden;rotatable=0;points=[[0,0.5],[1,0.5]];portConstraint=eastwest;whiteSpace=wrap;html=1;" parent="-SkAeLWxzW13uVKJ9q1q-228" vertex="1">
          <mxGeometry y="134" width="140" height="26" as="geometry" />
        </mxCell>
        <mxCell id="j1QVro5xEkpUKLc03D5Q-3" value="- country: String" style="text;strokeColor=none;fillColor=none;align=left;verticalAlign=top;spacingLeft=4;spacingRight=4;overflow=hidden;rotatable=0;points=[[0,0.5],[1,0.5]];portConstraint=eastwest;whiteSpace=wrap;html=1;" parent="-SkAeLWxzW13uVKJ9q1q-228" vertex="1">
          <mxGeometry y="160" width="140" height="26" as="geometry" />
        </mxCell>
        <mxCell id="j1QVro5xEkpUKLc03D5Q-8" value="- city: String" style="text;strokeColor=none;fillColor=none;align=left;verticalAlign=top;spacingLeft=4;spacingRight=4;overflow=hidden;rotatable=0;points=[[0,0.5],[1,0.5]];portConstraint=eastwest;whiteSpace=wrap;html=1;" parent="-SkAeLWxzW13uVKJ9q1q-228" vertex="1">
          <mxGeometry y="186" width="140" height="26" as="geometry" />
        </mxCell>
        <mxCell id="j1QVro5xEkpUKLc03D5Q-7" value="- photo: Object" style="text;strokeColor=none;fillColor=none;align=left;verticalAlign=top;spacingLeft=4;spacingRight=4;overflow=hidden;rotatable=0;points=[[0,0.5],[1,0.5]];portConstraint=eastwest;whiteSpace=wrap;html=1;" parent="-SkAeLWxzW13uVKJ9q1q-228" vertex="1">
          <mxGeometry y="212" width="140" height="26" as="geometry" />
        </mxCell>
        <mxCell id="-SkAeLWxzW13uVKJ9q1q-232" value="- isOnline: boolean" style="text;strokeColor=none;fillColor=none;align=left;verticalAlign=top;spacingLeft=4;spacingRight=4;overflow=hidden;rotatable=0;points=[[0,0.5],[1,0.5]];portConstraint=eastwest;whiteSpace=wrap;html=1;" parent="-SkAeLWxzW13uVKJ9q1q-228" vertex="1">
          <mxGeometry y="238" width="140" height="26" as="geometry" />
        </mxCell>
        <mxCell id="j1QVro5xEkpUKLc03D5Q-16" value="- _id: ObjectId" style="text;strokeColor=none;fillColor=none;align=left;verticalAlign=top;spacingLeft=4;spacingRight=4;overflow=hidden;rotatable=0;points=[[0,0.5],[1,0.5]];portConstraint=eastwest;whiteSpace=wrap;html=1;" parent="-SkAeLWxzW13uVKJ9q1q-228" vertex="1">
          <mxGeometry y="264" width="140" height="26" as="geometry" />
        </mxCell>
        <mxCell id="-SkAeLWxzW13uVKJ9q1q-233" value="inhert" style="endArrow=block;endSize=16;endFill=0;html=1;rounded=0;exitX=1;exitY=0;exitDx=0;exitDy=0;entryX=0;entryY=1;entryDx=0;entryDy=0;" parent="1" source="-SkAeLWxzW13uVKJ9q1q-224" target="-SkAeLWxzW13uVKJ9q1q-228" edge="1">
          <mxGeometry width="160" relative="1" as="geometry">
            <mxPoint x="-118.86000000000001" y="203.5879999999999" as="sourcePoint" />
            <mxPoint x="-10" y="-113.58" as="targetPoint" />
          </mxGeometry>
        </mxCell>
        <mxCell id="-SkAeLWxzW13uVKJ9q1q-234" value="inhert" style="endArrow=block;endSize=16;endFill=0;html=1;rounded=0;exitX=0.25;exitY=0;exitDx=0;exitDy=0;entryX=0.5;entryY=1;entryDx=0;entryDy=0;" parent="1" edge="1" target="-SkAeLWxzW13uVKJ9q1q-228" source="hLQOt44AYmpmIRwFQD5W-1">
          <mxGeometry width="160" relative="1" as="geometry">
            <mxPoint x="50.00000000000001" y="216.1999999999999" as="sourcePoint" />
            <mxPoint x="60" y="150" as="targetPoint" />
          </mxGeometry>
        </mxCell>
        <mxCell id="-SkAeLWxzW13uVKJ9q1q-235" value="CoderController" style="swimlane;fontStyle=0;childLayout=stackLayout;horizontal=1;startSize=26;fillColor=none;horizontalStack=0;resizeParent=1;resizeParentMax=0;resizeLast=0;collapsible=1;marginBottom=0;whiteSpace=wrap;html=1;" parent="1" vertex="1" collapsed="1">
          <mxGeometry x="30" y="-260" width="130" height="30" as="geometry">
            <mxRectangle x="-100" y="690" width="280" height="52" as="alternateBounds" />
          </mxGeometry>
        </mxCell>
        <mxCell id="-SkAeLWxzW13uVKJ9q1q-236" value="&lt;font style=&quot;font-size: 8px;&quot;&gt;+register(username,email,password,firstname,lastname,country:String):Json&lt;/font&gt;" style="text;strokeColor=none;fillColor=none;align=left;verticalAlign=top;spacingLeft=4;spacingRight=4;overflow=hidden;rotatable=0;points=[[0,0.5],[1,0.5]];portConstraint=eastwest;whiteSpace=wrap;html=1;" parent="-SkAeLWxzW13uVKJ9q1q-235" vertex="1">
          <mxGeometry y="26" width="280" height="26" as="geometry" />
        </mxCell>
        <mxCell id="-SkAeLWxzW13uVKJ9q1q-242" value="AdminController" style="swimlane;fontStyle=0;childLayout=stackLayout;horizontal=1;startSize=26;fillColor=none;horizontalStack=0;resizeParent=1;resizeParentMax=0;resizeLast=0;collapsible=1;marginBottom=0;whiteSpace=wrap;html=1;" parent="1" vertex="1" collapsed="1">
          <mxGeometry x="-190" y="-260" width="130" height="30" as="geometry">
            <mxRectangle x="-310" y="690" width="180" height="52" as="alternateBounds" />
          </mxGeometry>
        </mxCell>
        <mxCell id="-SkAeLWxzW13uVKJ9q1q-249" value="&lt;font style=&quot;font-size: 11px;&quot;&gt;+deleteUser(userId:String):json&lt;/font&gt;" style="text;strokeColor=none;fillColor=none;align=left;verticalAlign=top;spacingLeft=4;spacingRight=4;overflow=hidden;rotatable=0;points=[[0,0.5],[1,0.5]];portConstraint=eastwest;whiteSpace=wrap;html=1;" parent="-SkAeLWxzW13uVKJ9q1q-242" vertex="1">
          <mxGeometry y="26" width="180" height="26" as="geometry" />
        </mxCell>
        <mxCell id="-SkAeLWxzW13uVKJ9q1q-250" value="inhert" style="endArrow=block;endSize=16;endFill=0;html=1;rounded=0;exitX=0.75;exitY=0;exitDx=0;exitDy=0;entryX=0.19;entryY=1.085;entryDx=0;entryDy=0;entryPerimeter=0;" parent="1" target="j1QVro5xEkpUKLc03D5Q-19" edge="1" source="-SkAeLWxzW13uVKJ9q1q-242">
          <mxGeometry width="160" relative="1" as="geometry">
            <mxPoint x="-110" y="-140" as="sourcePoint" />
            <mxPoint x="-41" y="-173" as="targetPoint" />
          </mxGeometry>
        </mxCell>
        <mxCell id="-SkAeLWxzW13uVKJ9q1q-251" value="inhert" style="endArrow=block;endSize=16;endFill=0;html=1;rounded=0;exitX=0.5;exitY=0;exitDx=0;exitDy=0;" parent="1" source="-SkAeLWxzW13uVKJ9q1q-235" edge="1">
          <mxGeometry width="160" relative="1" as="geometry">
            <mxPoint x="-100" y="-130" as="sourcePoint" />
            <mxPoint x="40" y="-310" as="targetPoint" />
          </mxGeometry>
        </mxCell>
        <mxCell id="-SkAeLWxzW13uVKJ9q1q-260" value="Use" style="endArrow=open;endSize=12;dashed=1;html=1;rounded=0;entryX=0.425;entryY=1.158;entryDx=0;entryDy=0;entryPerimeter=0;exitX=0.5;exitY=0;exitDx=0;exitDy=0;" parent="1" target="-SkAeLWxzW13uVKJ9q1q-126" edge="1" source="-SkAeLWxzW13uVKJ9q1q-120">
          <mxGeometry width="160" relative="1" as="geometry">
            <mxPoint x="689.68" y="282" as="sourcePoint" />
            <mxPoint x="690.05" y="233.49599999999987" as="targetPoint" />
          </mxGeometry>
        </mxCell>
        <mxCell id="-SkAeLWxzW13uVKJ9q1q-273" value="UserFactory" style="swimlane;fontStyle=0;childLayout=stackLayout;horizontal=1;startSize=26;fillColor=none;horizontalStack=0;resizeParent=1;resizeParentMax=0;resizeLast=0;collapsible=1;marginBottom=0;whiteSpace=wrap;html=1;" parent="1" vertex="1" collapsed="1">
          <mxGeometry x="-180" y="-160" width="110" height="30" as="geometry">
            <mxRectangle x="-240" y="-150" width="140" height="52" as="alternateBounds" />
          </mxGeometry>
        </mxCell>
        <mxCell id="-SkAeLWxzW13uVKJ9q1q-274" value="+createUser(type:String)" style="text;strokeColor=none;fillColor=none;align=left;verticalAlign=top;spacingLeft=4;spacingRight=4;overflow=hidden;rotatable=0;points=[[0,0.5],[1,0.5]];portConstraint=eastwest;whiteSpace=wrap;html=1;" parent="-SkAeLWxzW13uVKJ9q1q-273" vertex="1">
          <mxGeometry y="26" width="140" height="26" as="geometry" />
        </mxCell>
        <mxCell id="-SkAeLWxzW13uVKJ9q1q-277" value="Use" style="endArrow=open;endSize=12;dashed=1;html=1;rounded=0;exitX=1;exitY=0.5;exitDx=0;exitDy=0;entryX=-0.006;entryY=0.05;entryDx=0;entryDy=0;entryPerimeter=0;" parent="1" source="-SkAeLWxzW13uVKJ9q1q-273" target="hLQOt44AYmpmIRwFQD5W-2" edge="1">
          <mxGeometry width="160" relative="1" as="geometry">
            <mxPoint x="-150" y="-70" as="sourcePoint" />
            <mxPoint x="10" y="-70" as="targetPoint" />
          </mxGeometry>
        </mxCell>
        <mxCell id="-SkAeLWxzW13uVKJ9q1q-278" value="Use" style="endArrow=open;endSize=12;dashed=1;html=1;rounded=0;exitX=0.25;exitY=0;exitDx=0;exitDy=0;entryX=0.5;entryY=1;entryDx=0;entryDy=0;" parent="1" source="-SkAeLWxzW13uVKJ9q1q-137" target="-SkAeLWxzW13uVKJ9q1q-127" edge="1">
          <mxGeometry width="160" relative="1" as="geometry">
            <mxPoint x="740" y="160" as="sourcePoint" />
            <mxPoint x="510" y="190" as="targetPoint" />
          </mxGeometry>
        </mxCell>
        <mxCell id="-SkAeLWxzW13uVKJ9q1q-280" value="implement" style="edgeLabel;html=1;align=center;verticalAlign=middle;resizable=0;points=[];" parent="1" vertex="1" connectable="0">
          <mxGeometry x="50.003014354034576" y="913.6235336428297" as="geometry" />
        </mxCell>
        <mxCell id="-SkAeLWxzW13uVKJ9q1q-281" value="implement" style="edgeLabel;html=1;align=center;verticalAlign=middle;resizable=0;points=[];" parent="1" vertex="1" connectable="0">
          <mxGeometry x="120.00301435403458" y="903.6235336428297" as="geometry" />
        </mxCell>
        <mxCell id="Fi8bxCCK50g3ECXb_paJ-1" value="Blog" style="swimlane;fontStyle=0;childLayout=stackLayout;horizontal=1;startSize=26;fillColor=none;horizontalStack=0;resizeParent=1;resizeParentMax=0;resizeLast=0;collapsible=1;marginBottom=0;whiteSpace=wrap;html=1;" parent="1" vertex="1" collapsed="1">
          <mxGeometry x="-455" y="31" width="140" height="30" as="geometry">
            <mxRectangle x="240" y="800" width="160" height="208" as="alternateBounds" />
          </mxGeometry>
        </mxCell>
        <mxCell id="Fi8bxCCK50g3ECXb_paJ-2" value="-name:String" style="text;strokeColor=none;fillColor=none;align=left;verticalAlign=top;spacingLeft=4;spacingRight=4;overflow=hidden;rotatable=0;points=[[0,0.5],[1,0.5]];portConstraint=eastwest;whiteSpace=wrap;html=1;" parent="Fi8bxCCK50g3ECXb_paJ-1" vertex="1">
          <mxGeometry y="26" width="160" height="26" as="geometry" />
        </mxCell>
        <mxCell id="Fi8bxCCK50g3ECXb_paJ-4" value="-descriptions:String" style="text;strokeColor=none;fillColor=none;align=left;verticalAlign=top;spacingLeft=4;spacingRight=4;overflow=hidden;rotatable=0;points=[[0,0.5],[1,0.5]];portConstraint=eastwest;whiteSpace=wrap;html=1;" parent="Fi8bxCCK50g3ECXb_paJ-1" vertex="1">
          <mxGeometry y="52" width="160" height="26" as="geometry" />
        </mxCell>
        <mxCell id="Fi8bxCCK50g3ECXb_paJ-31" value="- likesCount: Number" style="text;strokeColor=none;fillColor=none;align=left;verticalAlign=top;spacingLeft=4;spacingRight=4;overflow=hidden;rotatable=0;points=[[0,0.5],[1,0.5]];portConstraint=eastwest;whiteSpace=wrap;html=1;" parent="Fi8bxCCK50g3ECXb_paJ-1" vertex="1">
          <mxGeometry y="78" width="160" height="26" as="geometry" />
        </mxCell>
        <mxCell id="Fi8bxCCK50g3ECXb_paJ-30" value="- updatedAt: Date" style="text;strokeColor=none;fillColor=none;align=left;verticalAlign=top;spacingLeft=4;spacingRight=4;overflow=hidden;rotatable=0;points=[[0,0.5],[1,0.5]];portConstraint=eastwest;whiteSpace=wrap;html=1;" parent="Fi8bxCCK50g3ECXb_paJ-1" vertex="1">
          <mxGeometry y="104" width="160" height="26" as="geometry" />
        </mxCell>
        <mxCell id="Fi8bxCCK50g3ECXb_paJ-29" value="- createdAt: Date" style="text;strokeColor=none;fillColor=none;align=left;verticalAlign=top;spacingLeft=4;spacingRight=4;overflow=hidden;rotatable=0;points=[[0,0.5],[1,0.5]];portConstraint=eastwest;whiteSpace=wrap;html=1;" parent="Fi8bxCCK50g3ECXb_paJ-1" vertex="1">
          <mxGeometry y="130" width="160" height="26" as="geometry" />
        </mxCell>
        <mxCell id="Fi8bxCCK50g3ECXb_paJ-5" value="-CoderId:ObjectId(Coder)" style="text;strokeColor=none;fillColor=none;align=left;verticalAlign=top;spacingLeft=4;spacingRight=4;overflow=hidden;rotatable=0;points=[[0,0.5],[1,0.5]];portConstraint=eastwest;whiteSpace=wrap;html=1;" parent="Fi8bxCCK50g3ECXb_paJ-1" vertex="1">
          <mxGeometry y="156" width="160" height="26" as="geometry" />
        </mxCell>
        <mxCell id="Fi8bxCCK50g3ECXb_paJ-27" value="- _id: ObjectId" style="text;strokeColor=none;fillColor=none;align=left;verticalAlign=top;spacingLeft=4;spacingRight=4;overflow=hidden;rotatable=0;points=[[0,0.5],[1,0.5]];portConstraint=eastwest;whiteSpace=wrap;html=1;" parent="Fi8bxCCK50g3ECXb_paJ-1" vertex="1">
          <mxGeometry y="182" width="160" height="26" as="geometry" />
        </mxCell>
        <mxCell id="Fi8bxCCK50g3ECXb_paJ-7" value="BlogController" style="swimlane;fontStyle=0;childLayout=stackLayout;horizontal=1;startSize=26;fillColor=none;horizontalStack=0;resizeParent=1;resizeParentMax=0;resizeLast=0;collapsible=1;marginBottom=0;whiteSpace=wrap;html=1;" parent="1" vertex="1" collapsed="1">
          <mxGeometry x="-445" y="-50" width="120" height="30" as="geometry">
            <mxRectangle x="220" y="934" width="215" height="156" as="alternateBounds" />
          </mxGeometry>
        </mxCell>
        <mxCell id="Fi8bxCCK50g3ECXb_paJ-8" value="&lt;font style=&quot;font-size: 9px;&quot;&gt;+ createBlog(name,description,coderId:String):json&lt;/font&gt;" style="text;strokeColor=none;fillColor=none;align=left;verticalAlign=top;spacingLeft=4;spacingRight=4;overflow=hidden;rotatable=0;points=[[0,0.5],[1,0.5]];portConstraint=eastwest;whiteSpace=wrap;html=1;" parent="Fi8bxCCK50g3ECXb_paJ-7" vertex="1">
          <mxGeometry y="26" width="215" height="26" as="geometry" />
        </mxCell>
        <mxCell id="Fi8bxCCK50g3ECXb_paJ-9" value="+ getAllBlogs():json" style="text;strokeColor=none;fillColor=none;align=left;verticalAlign=top;spacingLeft=4;spacingRight=4;overflow=hidden;rotatable=0;points=[[0,0.5],[1,0.5]];portConstraint=eastwest;whiteSpace=wrap;html=1;" parent="Fi8bxCCK50g3ECXb_paJ-7" vertex="1">
          <mxGeometry y="52" width="215" height="26" as="geometry" />
        </mxCell>
        <mxCell id="Fi8bxCCK50g3ECXb_paJ-10" value="+ updateBlogById(blogId:String):json" style="text;strokeColor=none;fillColor=none;align=left;verticalAlign=top;spacingLeft=4;spacingRight=4;overflow=hidden;rotatable=0;points=[[0,0.5],[1,0.5]];portConstraint=eastwest;whiteSpace=wrap;html=1;" parent="Fi8bxCCK50g3ECXb_paJ-7" vertex="1">
          <mxGeometry y="78" width="215" height="26" as="geometry" />
        </mxCell>
        <mxCell id="Fi8bxCCK50g3ECXb_paJ-11" value="+ getBlogById(bolgId:String):json" style="text;strokeColor=none;fillColor=none;align=left;verticalAlign=top;spacingLeft=4;spacingRight=4;overflow=hidden;rotatable=0;points=[[0,0.5],[1,0.5]];portConstraint=eastwest;whiteSpace=wrap;html=1;" parent="Fi8bxCCK50g3ECXb_paJ-7" vertex="1">
          <mxGeometry y="104" width="215" height="26" as="geometry" />
        </mxCell>
        <mxCell id="Fi8bxCCK50g3ECXb_paJ-12" value="+ deleteBlogById(blogId:String):json" style="text;strokeColor=none;fillColor=none;align=left;verticalAlign=top;spacingLeft=4;spacingRight=4;overflow=hidden;rotatable=0;points=[[0,0.5],[1,0.5]];portConstraint=eastwest;whiteSpace=wrap;html=1;" parent="Fi8bxCCK50g3ECXb_paJ-7" vertex="1">
          <mxGeometry y="130" width="215" height="26" as="geometry" />
        </mxCell>
        <mxCell id="Fi8bxCCK50g3ECXb_paJ-13" value="Use" style="endArrow=open;endSize=12;dashed=1;html=1;rounded=0;entryX=0.5;entryY=0;entryDx=0;entryDy=0;" parent="1" edge="1" target="Fi8bxCCK50g3ECXb_paJ-1">
          <mxGeometry width="160" relative="1" as="geometry">
            <mxPoint x="-385" y="-20" as="sourcePoint" />
            <mxPoint x="-380" y="30" as="targetPoint" />
          </mxGeometry>
        </mxCell>
        <mxCell id="Fi8bxCCK50g3ECXb_paJ-14" value="Comment" style="swimlane;fontStyle=0;childLayout=stackLayout;horizontal=1;startSize=26;fillColor=none;horizontalStack=0;resizeParent=1;resizeParentMax=0;resizeLast=0;collapsible=1;marginBottom=0;whiteSpace=wrap;html=1;" parent="1" vertex="1" collapsed="1">
          <mxGeometry x="-645" y="31" width="90" height="30" as="geometry">
            <mxRectangle x="240" y="1260" width="140" height="156" as="alternateBounds" />
          </mxGeometry>
        </mxCell>
        <mxCell id="Fi8bxCCK50g3ECXb_paJ-15" value="-userId: ObjectId(Coder)" style="text;strokeColor=none;fillColor=none;align=left;verticalAlign=top;spacingLeft=4;spacingRight=4;overflow=hidden;rotatable=0;points=[[0,0.5],[1,0.5]];portConstraint=eastwest;whiteSpace=wrap;html=1;" parent="Fi8bxCCK50g3ECXb_paJ-14" vertex="1">
          <mxGeometry y="26" width="140" height="26" as="geometry" />
        </mxCell>
        <mxCell id="Fi8bxCCK50g3ECXb_paJ-16" value="-BlogId: ObjectId(Blog)" style="text;strokeColor=none;fillColor=none;align=left;verticalAlign=top;spacingLeft=4;spacingRight=4;overflow=hidden;rotatable=0;points=[[0,0.5],[1,0.5]];portConstraint=eastwest;whiteSpace=wrap;html=1;" parent="Fi8bxCCK50g3ECXb_paJ-14" vertex="1">
          <mxGeometry y="52" width="140" height="26" as="geometry" />
        </mxCell>
        <mxCell id="Fi8bxCCK50g3ECXb_paJ-17" value="-comment:String" style="text;strokeColor=none;fillColor=none;align=left;verticalAlign=top;spacingLeft=4;spacingRight=4;overflow=hidden;rotatable=0;points=[[0,0.5],[1,0.5]];portConstraint=eastwest;whiteSpace=wrap;html=1;" parent="Fi8bxCCK50g3ECXb_paJ-14" vertex="1">
          <mxGeometry y="78" width="140" height="26" as="geometry" />
        </mxCell>
        <mxCell id="Fi8bxCCK50g3ECXb_paJ-18" value="-CreatedAt:Date" style="text;strokeColor=none;fillColor=none;align=left;verticalAlign=top;spacingLeft=4;spacingRight=4;overflow=hidden;rotatable=0;points=[[0,0.5],[1,0.5]];portConstraint=eastwest;whiteSpace=wrap;html=1;" parent="Fi8bxCCK50g3ECXb_paJ-14" vertex="1">
          <mxGeometry y="104" width="140" height="26" as="geometry" />
        </mxCell>
        <mxCell id="Fi8bxCCK50g3ECXb_paJ-33" value="- _id: ObjectId" style="text;strokeColor=none;fillColor=none;align=left;verticalAlign=top;spacingLeft=4;spacingRight=4;overflow=hidden;rotatable=0;points=[[0,0.5],[1,0.5]];portConstraint=eastwest;whiteSpace=wrap;html=1;" parent="Fi8bxCCK50g3ECXb_paJ-14" vertex="1">
          <mxGeometry y="130" width="140" height="26" as="geometry" />
        </mxCell>
        <mxCell id="Fi8bxCCK50g3ECXb_paJ-19" value="commentController" style="swimlane;fontStyle=0;childLayout=stackLayout;horizontal=1;startSize=26;fillColor=none;horizontalStack=0;resizeParent=1;resizeParentMax=0;resizeLast=0;collapsible=1;marginBottom=0;whiteSpace=wrap;html=1;" parent="1" vertex="1" collapsed="1">
          <mxGeometry x="-670" y="-50" width="140" height="30" as="geometry">
            <mxRectangle x="220" y="1470" width="300" height="208" as="alternateBounds" />
          </mxGeometry>
        </mxCell>
        <mxCell id="Fi8bxCCK50g3ECXb_paJ-20" value="+createComment(userId,blogId,comment:String):json" style="text;strokeColor=none;fillColor=none;align=left;verticalAlign=top;spacingLeft=4;spacingRight=4;overflow=hidden;rotatable=0;points=[[0,0.5],[1,0.5]];portConstraint=eastwest;whiteSpace=wrap;html=1;" parent="Fi8bxCCK50g3ECXb_paJ-19" vertex="1">
          <mxGeometry y="26" width="300" height="26" as="geometry" />
        </mxCell>
        <mxCell id="Fi8bxCCK50g3ECXb_paJ-21" value="+ getAllComments():Json" style="text;strokeColor=none;fillColor=none;align=left;verticalAlign=top;spacingLeft=4;spacingRight=4;overflow=hidden;rotatable=0;points=[[0,0.5],[1,0.5]];portConstraint=eastwest;whiteSpace=wrap;html=1;" parent="Fi8bxCCK50g3ECXb_paJ-19" vertex="1">
          <mxGeometry y="52" width="300" height="26" as="geometry" />
        </mxCell>
        <mxCell id="Fi8bxCCK50g3ECXb_paJ-22" value="+ getCommentById(commentId:String):json" style="text;strokeColor=none;fillColor=none;align=left;verticalAlign=top;spacingLeft=4;spacingRight=4;overflow=hidden;rotatable=0;points=[[0,0.5],[1,0.5]];portConstraint=eastwest;whiteSpace=wrap;html=1;" parent="Fi8bxCCK50g3ECXb_paJ-19" vertex="1">
          <mxGeometry y="78" width="300" height="26" as="geometry" />
        </mxCell>
        <mxCell id="Fi8bxCCK50g3ECXb_paJ-23" value="+ updateCommentById(commentId:String):json" style="text;strokeColor=none;fillColor=none;align=left;verticalAlign=top;spacingLeft=4;spacingRight=4;overflow=hidden;rotatable=0;points=[[0,0.5],[1,0.5]];portConstraint=eastwest;whiteSpace=wrap;html=1;" parent="Fi8bxCCK50g3ECXb_paJ-19" vertex="1">
          <mxGeometry y="104" width="300" height="26" as="geometry" />
        </mxCell>
        <mxCell id="Fi8bxCCK50g3ECXb_paJ-24" value="+ deleteCommentById(commentId:String):json" style="text;strokeColor=none;fillColor=none;align=left;verticalAlign=top;spacingLeft=4;spacingRight=4;overflow=hidden;rotatable=0;points=[[0,0.5],[1,0.5]];portConstraint=eastwest;whiteSpace=wrap;html=1;" parent="Fi8bxCCK50g3ECXb_paJ-19" vertex="1">
          <mxGeometry y="130" width="300" height="26" as="geometry" />
        </mxCell>
        <mxCell id="Fi8bxCCK50g3ECXb_paJ-25" value="+getAllUserComments(userId:String):json" style="text;strokeColor=none;fillColor=none;align=left;verticalAlign=top;spacingLeft=4;spacingRight=4;overflow=hidden;rotatable=0;points=[[0,0.5],[1,0.5]];portConstraint=eastwest;whiteSpace=wrap;html=1;" parent="Fi8bxCCK50g3ECXb_paJ-19" vertex="1">
          <mxGeometry y="156" width="300" height="26" as="geometry" />
        </mxCell>
        <mxCell id="Fi8bxCCK50g3ECXb_paJ-26" value="+getAllBlogComments(blogId:String):json" style="text;strokeColor=none;fillColor=none;align=left;verticalAlign=top;spacingLeft=4;spacingRight=4;overflow=hidden;rotatable=0;points=[[0,0.5],[1,0.5]];portConstraint=eastwest;whiteSpace=wrap;html=1;" parent="Fi8bxCCK50g3ECXb_paJ-19" vertex="1">
          <mxGeometry y="182" width="300" height="26" as="geometry" />
        </mxCell>
        <mxCell id="Fi8bxCCK50g3ECXb_paJ-28" value="Use" style="endArrow=open;endSize=12;dashed=1;html=1;rounded=0;entryX=0.5;entryY=0;entryDx=0;entryDy=0;exitX=0.5;exitY=1;exitDx=0;exitDy=0;" parent="1" edge="1" target="Fi8bxCCK50g3ECXb_paJ-14" source="Fi8bxCCK50g3ECXb_paJ-19">
          <mxGeometry width="160" relative="1" as="geometry">
            <mxPoint x="-600" y="-20" as="sourcePoint" />
            <mxPoint x="-581" y="110" as="targetPoint" />
          </mxGeometry>
        </mxCell>
        <mxCell id="Fi8bxCCK50g3ECXb_paJ-575" value="UserControllerFactory" style="swimlane;fontStyle=0;childLayout=stackLayout;horizontal=1;startSize=26;fillColor=none;horizontalStack=0;resizeParent=1;resizeParentMax=0;resizeLast=0;collapsible=1;marginBottom=0;whiteSpace=wrap;html=1;" parent="1" vertex="1" collapsed="1">
          <mxGeometry x="-300" y="-340" width="160" height="30" as="geometry">
            <mxRectangle x="-470" y="500" width="230" height="52" as="alternateBounds" />
          </mxGeometry>
        </mxCell>
        <mxCell id="Fi8bxCCK50g3ECXb_paJ-576" value="+createUserController(type:String):json" style="text;strokeColor=none;fillColor=none;align=left;verticalAlign=top;spacingLeft=4;spacingRight=4;overflow=hidden;rotatable=0;points=[[0,0.5],[1,0.5]];portConstraint=eastwest;whiteSpace=wrap;html=1;" parent="Fi8bxCCK50g3ECXb_paJ-575" vertex="1">
          <mxGeometry y="26" width="230" height="26" as="geometry" />
        </mxCell>
        <mxCell id="Fi8bxCCK50g3ECXb_paJ-577" value="Use" style="endArrow=open;endSize=12;dashed=1;html=1;rounded=0;exitX=1;exitY=0.5;exitDx=0;exitDy=0;entryX=0;entryY=0.5;entryDx=0;entryDy=0;" parent="1" edge="1" target="hLQOt44AYmpmIRwFQD5W-5" source="Fi8bxCCK50g3ECXb_paJ-575">
          <mxGeometry width="160" relative="1" as="geometry">
            <mxPoint x="-159" y="-325.67" as="sourcePoint" />
            <mxPoint x="-100" y="-324.67" as="targetPoint" />
          </mxGeometry>
        </mxCell>
        <mxCell id="QZMovM8n5H5LBThOfunk-3" value="CustomMatch" style="swimlane;fontStyle=0;childLayout=stackLayout;horizontal=1;startSize=26;fillColor=none;horizontalStack=0;resizeParent=1;resizeParentMax=0;resizeLast=0;collapsible=1;marginBottom=0;whiteSpace=wrap;html=1;" parent="1" vertex="1" collapsed="1">
          <mxGeometry x="250" y="449" width="110" height="30" as="geometry">
            <mxRectangle x="250" y="467" width="190" height="156" as="alternateBounds" />
          </mxGeometry>
        </mxCell>
        <mxCell id="QZMovM8n5H5LBThOfunk-23" value="-team1:ObjectId(Coder)[]" style="text;strokeColor=none;fillColor=none;align=left;verticalAlign=top;spacingLeft=4;spacingRight=4;overflow=hidden;rotatable=0;points=[[0,0.5],[1,0.5]];portConstraint=eastwest;whiteSpace=wrap;html=1;" parent="QZMovM8n5H5LBThOfunk-3" vertex="1">
          <mxGeometry y="26" width="190" height="26" as="geometry" />
        </mxCell>
        <mxCell id="QZMovM8n5H5LBThOfunk-24" value="-team2: ObjectId(Coder)[]" style="text;strokeColor=none;fillColor=none;align=left;verticalAlign=top;spacingLeft=4;spacingRight=4;overflow=hidden;rotatable=0;points=[[0,0.5],[1,0.5]];portConstraint=eastwest;whiteSpace=wrap;html=1;" parent="QZMovM8n5H5LBThOfunk-3" vertex="1">
          <mxGeometry y="52" width="190" height="26" as="geometry" />
        </mxCell>
        <mxCell id="QZMovM8n5H5LBThOfunk-28" value="-history2: ObjectId(Submission)[]" style="text;strokeColor=none;fillColor=none;align=left;verticalAlign=top;spacingLeft=4;spacingRight=4;overflow=hidden;rotatable=0;points=[[0,0.5],[1,0.5]];portConstraint=eastwest;whiteSpace=wrap;html=1;" parent="QZMovM8n5H5LBThOfunk-3" vertex="1">
          <mxGeometry y="78" width="190" height="26" as="geometry" />
        </mxCell>
        <mxCell id="QZMovM8n5H5LBThOfunk-27" value="-history1: ObjectId(Submission)[]" style="text;strokeColor=none;fillColor=none;align=left;verticalAlign=top;spacingLeft=4;spacingRight=4;overflow=hidden;rotatable=0;points=[[0,0.5],[1,0.5]];portConstraint=eastwest;whiteSpace=wrap;html=1;" parent="QZMovM8n5H5LBThOfunk-3" vertex="1">
          <mxGeometry y="104" width="190" height="26" as="geometry" />
        </mxCell>
        <mxCell id="QZMovM8n5H5LBThOfunk-36" value="-winner: String" style="text;strokeColor=none;fillColor=none;align=left;verticalAlign=top;spacingLeft=4;spacingRight=4;overflow=hidden;rotatable=0;points=[[0,0.5],[1,0.5]];portConstraint=eastwest;whiteSpace=wrap;html=1;" parent="QZMovM8n5H5LBThOfunk-3" vertex="1">
          <mxGeometry y="130" width="190" height="26" as="geometry" />
        </mxCell>
        <mxCell id="QZMovM8n5H5LBThOfunk-11" value="SoloMatch" style="swimlane;fontStyle=0;childLayout=stackLayout;horizontal=1;startSize=26;fillColor=none;horizontalStack=0;resizeParent=1;resizeParentMax=0;resizeLast=0;collapsible=1;marginBottom=0;whiteSpace=wrap;html=1;" parent="1" vertex="1" collapsed="1">
          <mxGeometry x="-90" y="447" width="100" height="30" as="geometry">
            <mxRectangle x="1597.5" y="290" width="180" height="78" as="alternateBounds" />
          </mxGeometry>
        </mxCell>
        <mxCell id="QZMovM8n5H5LBThOfunk-12" value="-coderId: ObjectId(Coder)" style="text;strokeColor=none;fillColor=none;align=left;verticalAlign=top;spacingLeft=4;spacingRight=4;overflow=hidden;rotatable=0;points=[[0,0.5],[1,0.5]];portConstraint=eastwest;whiteSpace=wrap;html=1;" parent="QZMovM8n5H5LBThOfunk-11" vertex="1">
          <mxGeometry y="26" width="180" height="26" as="geometry" />
        </mxCell>
        <mxCell id="QZMovM8n5H5LBThOfunk-38" value="-history: ObjectId(Submission)[]" style="text;strokeColor=none;fillColor=none;align=left;verticalAlign=top;spacingLeft=4;spacingRight=4;overflow=hidden;rotatable=0;points=[[0,0.5],[1,0.5]];portConstraint=eastwest;whiteSpace=wrap;html=1;" parent="QZMovM8n5H5LBThOfunk-11" vertex="1">
          <mxGeometry y="52" width="180" height="26" as="geometry" />
        </mxCell>
        <mxCell id="QZMovM8n5H5LBThOfunk-29" value="RankedMatch" style="swimlane;fontStyle=0;childLayout=stackLayout;horizontal=1;startSize=26;fillColor=none;horizontalStack=0;resizeParent=1;resizeParentMax=0;resizeLast=0;collapsible=1;marginBottom=0;whiteSpace=wrap;html=1;" parent="1" vertex="1" collapsed="1">
          <mxGeometry x="65" y="449" width="110" height="30" as="geometry">
            <mxRectangle x="1795" y="290" width="190" height="208" as="alternateBounds" />
          </mxGeometry>
        </mxCell>
        <mxCell id="QZMovM8n5H5LBThOfunk-30" value="-team1:ObjectId(Coder)[]" style="text;strokeColor=none;fillColor=none;align=left;verticalAlign=top;spacingLeft=4;spacingRight=4;overflow=hidden;rotatable=0;points=[[0,0.5],[1,0.5]];portConstraint=eastwest;whiteSpace=wrap;html=1;" parent="QZMovM8n5H5LBThOfunk-29" vertex="1">
          <mxGeometry y="26" width="190" height="26" as="geometry" />
        </mxCell>
        <mxCell id="QZMovM8n5H5LBThOfunk-31" value="-team2: ObjectId(Coder)[]" style="text;strokeColor=none;fillColor=none;align=left;verticalAlign=top;spacingLeft=4;spacingRight=4;overflow=hidden;rotatable=0;points=[[0,0.5],[1,0.5]];portConstraint=eastwest;whiteSpace=wrap;html=1;" parent="QZMovM8n5H5LBThOfunk-29" vertex="1">
          <mxGeometry y="52" width="190" height="26" as="geometry" />
        </mxCell>
        <mxCell id="QZMovM8n5H5LBThOfunk-32" value="-history2: ObjectId(Submission)[]" style="text;strokeColor=none;fillColor=none;align=left;verticalAlign=top;spacingLeft=4;spacingRight=4;overflow=hidden;rotatable=0;points=[[0,0.5],[1,0.5]];portConstraint=eastwest;whiteSpace=wrap;html=1;" parent="QZMovM8n5H5LBThOfunk-29" vertex="1">
          <mxGeometry y="78" width="190" height="26" as="geometry" />
        </mxCell>
        <mxCell id="QZMovM8n5H5LBThOfunk-33" value="-history1: ObjectId(Submission)[]" style="text;strokeColor=none;fillColor=none;align=left;verticalAlign=top;spacingLeft=4;spacingRight=4;overflow=hidden;rotatable=0;points=[[0,0.5],[1,0.5]];portConstraint=eastwest;whiteSpace=wrap;html=1;" parent="QZMovM8n5H5LBThOfunk-29" vertex="1">
          <mxGeometry y="104" width="190" height="26" as="geometry" />
        </mxCell>
        <mxCell id="QZMovM8n5H5LBThOfunk-34" value="-points2: Number" style="text;strokeColor=none;fillColor=none;align=left;verticalAlign=top;spacingLeft=4;spacingRight=4;overflow=hidden;rotatable=0;points=[[0,0.5],[1,0.5]];portConstraint=eastwest;whiteSpace=wrap;html=1;" parent="QZMovM8n5H5LBThOfunk-29" vertex="1">
          <mxGeometry y="130" width="190" height="26" as="geometry" />
        </mxCell>
        <mxCell id="QZMovM8n5H5LBThOfunk-35" value="-points1: Number" style="text;strokeColor=none;fillColor=none;align=left;verticalAlign=top;spacingLeft=4;spacingRight=4;overflow=hidden;rotatable=0;points=[[0,0.5],[1,0.5]];portConstraint=eastwest;whiteSpace=wrap;html=1;" parent="QZMovM8n5H5LBThOfunk-29" vertex="1">
          <mxGeometry y="156" width="190" height="26" as="geometry" />
        </mxCell>
        <mxCell id="QZMovM8n5H5LBThOfunk-37" value="-winner: String" style="text;strokeColor=none;fillColor=none;align=left;verticalAlign=top;spacingLeft=4;spacingRight=4;overflow=hidden;rotatable=0;points=[[0,0.5],[1,0.5]];portConstraint=eastwest;whiteSpace=wrap;html=1;" parent="QZMovM8n5H5LBThOfunk-29" vertex="1">
          <mxGeometry y="182" width="190" height="26" as="geometry" />
        </mxCell>
        <mxCell id="QZMovM8n5H5LBThOfunk-39" value="" style="endArrow=block;endFill=0;endSize=12;html=1;rounded=0;entryX=0.093;entryY=1.143;entryDx=0;entryDy=0;entryPerimeter=0;exitX=0.576;exitY=-0.022;exitDx=0;exitDy=0;exitPerimeter=0;" parent="1" source="QZMovM8n5H5LBThOfunk-11" target="-SkAeLWxzW13uVKJ9q1q-157" edge="1">
          <mxGeometry width="160" relative="1" as="geometry">
            <mxPoint x="-50" y="567" as="sourcePoint" />
            <mxPoint x="-10" y="587" as="targetPoint" />
          </mxGeometry>
        </mxCell>
        <mxCell id="QZMovM8n5H5LBThOfunk-40" value="" style="endArrow=block;endFill=0;endSize=12;html=1;rounded=0;entryX=0.443;entryY=1.232;entryDx=0;entryDy=0;entryPerimeter=0;exitX=0.303;exitY=-0.004;exitDx=0;exitDy=0;exitPerimeter=0;" parent="1" source="QZMovM8n5H5LBThOfunk-29" target="-SkAeLWxzW13uVKJ9q1q-157" edge="1">
          <mxGeometry width="160" relative="1" as="geometry">
            <mxPoint x="-40" y="577" as="sourcePoint" />
            <mxPoint x="18" y="394" as="targetPoint" />
          </mxGeometry>
        </mxCell>
        <mxCell id="QZMovM8n5H5LBThOfunk-41" value="" style="endArrow=block;endFill=0;endSize=12;html=1;rounded=0;entryX=1;entryY=0.75;entryDx=0;entryDy=0;exitX=0.16;exitY=-0.021;exitDx=0;exitDy=0;exitPerimeter=0;" parent="1" source="QZMovM8n5H5LBThOfunk-3" edge="1" target="-SkAeLWxzW13uVKJ9q1q-145">
          <mxGeometry width="160" relative="1" as="geometry">
            <mxPoint x="230" y="569" as="sourcePoint" />
            <mxPoint x="190" y="379" as="targetPoint" />
          </mxGeometry>
        </mxCell>
        <mxCell id="QZMovM8n5H5LBThOfunk-43" value="inherit" style="text;html=1;align=center;verticalAlign=middle;resizable=0;points=[];autosize=1;strokeColor=none;fillColor=none;" parent="1" vertex="1">
          <mxGeometry x="70" y="407" width="60" height="30" as="geometry" />
        </mxCell>
        <mxCell id="QZMovM8n5H5LBThOfunk-44" value="inherit" style="text;html=1;align=center;verticalAlign=middle;resizable=0;points=[];autosize=1;strokeColor=none;fillColor=none;" parent="1" vertex="1">
          <mxGeometry x="190" y="407" width="60" height="30" as="geometry" />
        </mxCell>
        <mxCell id="QZMovM8n5H5LBThOfunk-45" value="MatchAbstractFactory" style="swimlane;fontStyle=0;childLayout=stackLayout;horizontal=1;startSize=26;fillColor=none;horizontalStack=0;resizeParent=1;resizeParentMax=0;resizeLast=0;collapsible=1;marginBottom=0;whiteSpace=wrap;html=1;" parent="1" vertex="1" collapsed="1">
          <mxGeometry x="500" y="631" width="160" height="30" as="geometry">
            <mxRectangle x="2260" y="540" width="160" height="78" as="alternateBounds" />
          </mxGeometry>
        </mxCell>
        <mxCell id="QZMovM8n5H5LBThOfunk-46" value="+ createMatch(type string)" style="text;strokeColor=none;fillColor=none;align=left;verticalAlign=top;spacingLeft=4;spacingRight=4;overflow=hidden;rotatable=0;points=[[0,0.5],[1,0.5]];portConstraint=eastwest;whiteSpace=wrap;html=1;" parent="QZMovM8n5H5LBThOfunk-45" vertex="1">
          <mxGeometry y="26" width="160" height="26" as="geometry" />
        </mxCell>
        <mxCell id="QZMovM8n5H5LBThOfunk-47" value="&lt;font style=&quot;font-size: 9px;&quot;&gt;+ createMatchController(type string)&lt;/font&gt;" style="text;strokeColor=none;fillColor=none;align=left;verticalAlign=top;spacingLeft=4;spacingRight=4;overflow=hidden;rotatable=0;points=[[0,0.5],[1,0.5]];portConstraint=eastwest;whiteSpace=wrap;html=1;" parent="QZMovM8n5H5LBThOfunk-45" vertex="1">
          <mxGeometry y="52" width="160" height="26" as="geometry" />
        </mxCell>
        <mxCell id="QZMovM8n5H5LBThOfunk-53" value="RankedMatchFactory" style="swimlane;fontStyle=0;childLayout=stackLayout;horizontal=1;startSize=26;fillColor=none;horizontalStack=0;resizeParent=1;resizeParentMax=0;resizeLast=0;collapsible=1;marginBottom=0;whiteSpace=wrap;html=1;" parent="1" vertex="1" collapsed="1">
          <mxGeometry x="510" y="755" width="150" height="30" as="geometry">
            <mxRectangle x="2270" y="664" width="160" height="78" as="alternateBounds" />
          </mxGeometry>
        </mxCell>
        <mxCell id="QZMovM8n5H5LBThOfunk-54" value="+ createMatch(type string)" style="text;strokeColor=none;fillColor=none;align=left;verticalAlign=top;spacingLeft=4;spacingRight=4;overflow=hidden;rotatable=0;points=[[0,0.5],[1,0.5]];portConstraint=eastwest;whiteSpace=wrap;html=1;" parent="QZMovM8n5H5LBThOfunk-53" vertex="1">
          <mxGeometry y="26" width="160" height="26" as="geometry" />
        </mxCell>
        <mxCell id="QZMovM8n5H5LBThOfunk-55" value="&lt;font style=&quot;font-size: 9px;&quot;&gt;+ createMatchController(type string)&lt;/font&gt;" style="text;strokeColor=none;fillColor=none;align=left;verticalAlign=top;spacingLeft=4;spacingRight=4;overflow=hidden;rotatable=0;points=[[0,0.5],[1,0.5]];portConstraint=eastwest;whiteSpace=wrap;html=1;" parent="QZMovM8n5H5LBThOfunk-53" vertex="1">
          <mxGeometry y="52" width="160" height="26" as="geometry" />
        </mxCell>
        <mxCell id="QZMovM8n5H5LBThOfunk-56" value="CustomMatchFactory" style="swimlane;fontStyle=0;childLayout=stackLayout;horizontal=1;startSize=26;fillColor=none;horizontalStack=0;resizeParent=1;resizeParentMax=0;resizeLast=0;collapsible=1;marginBottom=0;whiteSpace=wrap;html=1;" parent="1" vertex="1" collapsed="1">
          <mxGeometry x="700" y="731" width="150" height="30" as="geometry">
            <mxRectangle x="2450" y="650" width="160" height="78" as="alternateBounds" />
          </mxGeometry>
        </mxCell>
        <mxCell id="QZMovM8n5H5LBThOfunk-57" value="+ createMatch(type string)" style="text;strokeColor=none;fillColor=none;align=left;verticalAlign=top;spacingLeft=4;spacingRight=4;overflow=hidden;rotatable=0;points=[[0,0.5],[1,0.5]];portConstraint=eastwest;whiteSpace=wrap;html=1;" parent="QZMovM8n5H5LBThOfunk-56" vertex="1">
          <mxGeometry y="26" width="160" height="26" as="geometry" />
        </mxCell>
        <mxCell id="QZMovM8n5H5LBThOfunk-58" value="&lt;font style=&quot;font-size: 9px;&quot;&gt;+ createMatchController(type string)&lt;/font&gt;" style="text;strokeColor=none;fillColor=none;align=left;verticalAlign=top;spacingLeft=4;spacingRight=4;overflow=hidden;rotatable=0;points=[[0,0.5],[1,0.5]];portConstraint=eastwest;whiteSpace=wrap;html=1;" parent="QZMovM8n5H5LBThOfunk-56" vertex="1">
          <mxGeometry y="52" width="160" height="26" as="geometry" />
        </mxCell>
        <mxCell id="QZMovM8n5H5LBThOfunk-59" value="SoloMatchFactory" style="swimlane;fontStyle=0;childLayout=stackLayout;horizontal=1;startSize=26;fillColor=none;horizontalStack=0;resizeParent=1;resizeParentMax=0;resizeLast=0;collapsible=1;marginBottom=0;whiteSpace=wrap;html=1;" parent="1" vertex="1" collapsed="1">
          <mxGeometry x="320" y="741" width="140" height="30" as="geometry">
            <mxRectangle x="2070" y="650" width="160" height="78" as="alternateBounds" />
          </mxGeometry>
        </mxCell>
        <mxCell id="QZMovM8n5H5LBThOfunk-60" value="+ createMatch(type string)" style="text;strokeColor=none;fillColor=none;align=left;verticalAlign=top;spacingLeft=4;spacingRight=4;overflow=hidden;rotatable=0;points=[[0,0.5],[1,0.5]];portConstraint=eastwest;whiteSpace=wrap;html=1;" parent="QZMovM8n5H5LBThOfunk-59" vertex="1">
          <mxGeometry y="26" width="160" height="26" as="geometry" />
        </mxCell>
        <mxCell id="QZMovM8n5H5LBThOfunk-61" value="&lt;font style=&quot;font-size: 9px;&quot;&gt;+ createMatchController(type string)&lt;/font&gt;" style="text;strokeColor=none;fillColor=none;align=left;verticalAlign=top;spacingLeft=4;spacingRight=4;overflow=hidden;rotatable=0;points=[[0,0.5],[1,0.5]];portConstraint=eastwest;whiteSpace=wrap;html=1;" parent="QZMovM8n5H5LBThOfunk-59" vertex="1">
          <mxGeometry y="52" width="160" height="26" as="geometry" />
        </mxCell>
        <mxCell id="QZMovM8n5H5LBThOfunk-62" value="" style="endArrow=block;dashed=1;endFill=0;endSize=12;html=1;rounded=0;exitX=0.85;exitY=-0.013;exitDx=0;exitDy=0;exitPerimeter=0;entryX=0.001;entryY=0.876;entryDx=0;entryDy=0;entryPerimeter=0;" parent="1" source="QZMovM8n5H5LBThOfunk-59" target="QZMovM8n5H5LBThOfunk-47" edge="1">
          <mxGeometry width="160" relative="1" as="geometry">
            <mxPoint x="350" y="731" as="sourcePoint" />
            <mxPoint x="510" y="731" as="targetPoint" />
          </mxGeometry>
        </mxCell>
        <mxCell id="QZMovM8n5H5LBThOfunk-63" value="" style="endArrow=block;dashed=1;endFill=0;endSize=12;html=1;rounded=0;exitX=0.5;exitY=0;exitDx=0;exitDy=0;entryX=0.5;entryY=1;entryDx=0;entryDy=0;" parent="1" source="QZMovM8n5H5LBThOfunk-53" target="QZMovM8n5H5LBThOfunk-45" edge="1">
          <mxGeometry width="160" relative="1" as="geometry">
            <mxPoint x="456" y="750" as="sourcePoint" />
            <mxPoint x="510" y="726" as="targetPoint" />
          </mxGeometry>
        </mxCell>
        <mxCell id="QZMovM8n5H5LBThOfunk-64" value="" style="endArrow=block;dashed=1;endFill=0;endSize=12;html=1;rounded=0;exitX=0;exitY=0;exitDx=0;exitDy=0;entryX=0.894;entryY=1.122;entryDx=0;entryDy=0;entryPerimeter=0;" parent="1" source="QZMovM8n5H5LBThOfunk-56" target="QZMovM8n5H5LBThOfunk-47" edge="1">
          <mxGeometry width="160" relative="1" as="geometry">
            <mxPoint x="690" y="741" as="sourcePoint" />
            <mxPoint x="520" y="736" as="targetPoint" />
          </mxGeometry>
        </mxCell>
        <mxCell id="QZMovM8n5H5LBThOfunk-65" value="implement" style="text;html=1;align=center;verticalAlign=middle;resizable=0;points=[];autosize=1;strokeColor=none;fillColor=none;" parent="1" vertex="1">
          <mxGeometry x="420" y="691" width="80" height="30" as="geometry" />
        </mxCell>
        <mxCell id="QZMovM8n5H5LBThOfunk-66" value="implement" style="text;html=1;align=center;verticalAlign=middle;resizable=0;points=[];autosize=1;strokeColor=none;fillColor=none;" parent="1" vertex="1">
          <mxGeometry x="520" y="701" width="80" height="30" as="geometry" />
        </mxCell>
        <mxCell id="QZMovM8n5H5LBThOfunk-67" value="implement" style="text;html=1;align=center;verticalAlign=middle;resizable=0;points=[];autosize=1;strokeColor=none;fillColor=none;" parent="1" vertex="1">
          <mxGeometry x="640" y="701" width="80" height="30" as="geometry" />
        </mxCell>
        <mxCell id="QZMovM8n5H5LBThOfunk-68" value="Use" style="endArrow=open;endSize=12;dashed=1;html=1;rounded=0;exitX=0.342;exitY=0.014;exitDx=0;exitDy=0;exitPerimeter=0;entryX=0.25;entryY=1;entryDx=0;entryDy=0;" parent="1" source="QZMovM8n5H5LBThOfunk-59" edge="1" target="QZMovM8n5H5LBThOfunk-11">
          <mxGeometry width="160" relative="1" as="geometry">
            <mxPoint x="350" y="731" as="sourcePoint" />
            <mxPoint x="-130" y="461" as="targetPoint" />
            <Array as="points">
              <mxPoint x="365" y="691" />
              <mxPoint x="-60" y="691" />
            </Array>
          </mxGeometry>
        </mxCell>
        <mxCell id="QZMovM8n5H5LBThOfunk-70" value="Use" style="endArrow=open;endSize=12;dashed=1;html=1;rounded=0;entryX=0.158;entryY=1.154;entryDx=0;entryDy=0;entryPerimeter=0;exitX=0.25;exitY=1;exitDx=0;exitDy=0;" parent="1" source="QZMovM8n5H5LBThOfunk-56" target="QZMovM8n5H5LBThOfunk-36" edge="1">
          <mxGeometry width="160" relative="1" as="geometry">
            <mxPoint x="765" y="771" as="sourcePoint" />
            <mxPoint x="280" y="616" as="targetPoint" />
            <Array as="points">
              <mxPoint x="738" y="880" />
              <mxPoint x="280" y="876" />
            </Array>
          </mxGeometry>
        </mxCell>
        <mxCell id="QZMovM8n5H5LBThOfunk-71" value="Use" style="endArrow=open;endSize=12;dashed=1;html=1;rounded=0;entryX=0.5;entryY=1;entryDx=0;entryDy=0;exitX=0.5;exitY=1;exitDx=0;exitDy=0;" parent="1" source="QZMovM8n5H5LBThOfunk-56" edge="1" target="-SkAeLWxzW13uVKJ9q1q-177">
          <mxGeometry width="160" relative="1" as="geometry">
            <mxPoint x="803" y="771" as="sourcePoint" />
            <mxPoint x="270" y="981" as="targetPoint" />
            <Array as="points">
              <mxPoint x="780" y="1050" />
              <mxPoint x="265" y="1051" />
            </Array>
          </mxGeometry>
        </mxCell>
        <mxCell id="QZMovM8n5H5LBThOfunk-72" value="Use" style="endArrow=open;endSize=12;dashed=1;html=1;rounded=0;exitX=0.5;exitY=1;exitDx=0;exitDy=0;entryX=0.25;entryY=1;entryDx=0;entryDy=0;" parent="1" target="-SkAeLWxzW13uVKJ9q1q-184" edge="1" source="QZMovM8n5H5LBThOfunk-53">
          <mxGeometry width="160" relative="1" as="geometry">
            <mxPoint x="581" y="837" as="sourcePoint" />
            <mxPoint x="50" y="1013" as="targetPoint" />
            <Array as="points">
              <mxPoint x="580" y="1063" />
              <mxPoint x="50" y="1063" />
            </Array>
          </mxGeometry>
        </mxCell>
        <mxCell id="QZMovM8n5H5LBThOfunk-73" value="Use" style="endArrow=open;endSize=12;dashed=1;html=1;rounded=0;exitX=0.75;exitY=1;exitDx=0;exitDy=0;entryX=0.5;entryY=1;entryDx=0;entryDy=0;" parent="1" edge="1" target="-SkAeLWxzW13uVKJ9q1q-191" source="QZMovM8n5H5LBThOfunk-59">
          <mxGeometry width="160" relative="1" as="geometry">
            <mxPoint x="420" y="821" as="sourcePoint" />
            <mxPoint x="-110" y="973.6199999999999" as="targetPoint" />
            <Array as="points">
              <mxPoint x="420" y="1026.62" />
              <mxPoint x="-100" y="1030" />
            </Array>
          </mxGeometry>
        </mxCell>
        <mxCell id="QZMovM8n5H5LBThOfunk-69" value="Use" style="endArrow=open;endSize=12;dashed=1;html=1;rounded=0;exitX=0.75;exitY=1;exitDx=0;exitDy=0;entryX=0.5;entryY=1;entryDx=0;entryDy=0;" parent="1" source="QZMovM8n5H5LBThOfunk-53" edge="1" target="QZMovM8n5H5LBThOfunk-29">
          <mxGeometry width="160" relative="1" as="geometry">
            <mxPoint x="605" y="872" as="sourcePoint" />
            <mxPoint x="110" y="591" as="targetPoint" />
            <Array as="points">
              <mxPoint x="623" y="851" />
              <mxPoint x="120" y="851" />
            </Array>
          </mxGeometry>
        </mxCell>
        <mxCell id="QZMovM8n5H5LBThOfunk-42" value="inherit" style="text;html=1;align=center;verticalAlign=middle;resizable=0;points=[];autosize=1;strokeColor=none;fillColor=none;" parent="1" vertex="1">
          <mxGeometry x="-30" y="407" width="60" height="30" as="geometry" />
        </mxCell>
        <mxCell id="r38iWUGdL_r44oemzhUt-11" value="" style="endArrow=diamondThin;endFill=1;endSize=24;html=1;rounded=0;entryX=0;entryY=1;entryDx=0;entryDy=0;exitX=0.25;exitY=0;exitDx=0;exitDy=0;" edge="1" parent="1" source="-SkAeLWxzW13uVKJ9q1q-1" target="hLQOt44AYmpmIRwFQD5W-1">
          <mxGeometry width="160" relative="1" as="geometry">
            <mxPoint x="50" y="100" as="sourcePoint" />
            <mxPoint x="210" y="100" as="targetPoint" />
          </mxGeometry>
        </mxCell>
        <mxCell id="r38iWUGdL_r44oemzhUt-12" value="" style="endArrow=diamondThin;endFill=1;endSize=24;html=1;rounded=0;exitX=0.25;exitY=0;exitDx=0;exitDy=0;" edge="1" parent="1" source="-SkAeLWxzW13uVKJ9q1q-23">
          <mxGeometry width="160" relative="1" as="geometry">
            <mxPoint x="-265" y="170" as="sourcePoint" />
            <mxPoint x="20" y="-30" as="targetPoint" />
          </mxGeometry>
        </mxCell>
        <mxCell id="r38iWUGdL_r44oemzhUt-13" value="" style="endArrow=diamondThin;endFill=0;endSize=24;html=1;rounded=0;exitX=0.25;exitY=0;exitDx=0;exitDy=0;" edge="1" parent="1" source="-SkAeLWxzW13uVKJ9q1q-36">
          <mxGeometry width="160" relative="1" as="geometry">
            <mxPoint x="595" y="370" as="sourcePoint" />
            <mxPoint x="330" y="-30" as="targetPoint" />
          </mxGeometry>
        </mxCell>
        <mxCell id="r38iWUGdL_r44oemzhUt-14" value="" style="endArrow=diamondThin;endFill=0;endSize=24;html=1;rounded=0;exitX=0.25;exitY=1;exitDx=0;exitDy=0;entryX=0.25;entryY=0;entryDx=0;entryDy=0;" edge="1" parent="1" source="hLQOt44AYmpmIRwFQD5W-1" target="-SkAeLWxzW13uVKJ9q1q-52">
          <mxGeometry width="160" relative="1" as="geometry">
            <mxPoint x="116" y="179.62" as="sourcePoint" />
            <mxPoint x="110" y="173" as="targetPoint" />
          </mxGeometry>
        </mxCell>
        <mxCell id="r38iWUGdL_r44oemzhUt-15" value="" style="endArrow=diamondThin;endFill=1;endSize=24;html=1;rounded=0;exitX=0;exitY=0;exitDx=0;exitDy=0;" edge="1" parent="1" source="-SkAeLWxzW13uVKJ9q1q-65">
          <mxGeometry width="160" relative="1" as="geometry">
            <mxPoint x="230" y="196" as="sourcePoint" />
            <mxPoint x="130" y="-30" as="targetPoint" />
          </mxGeometry>
        </mxCell>
        <mxCell id="r38iWUGdL_r44oemzhUt-16" value="" style="endArrow=diamondThin;endFill=1;endSize=24;html=1;rounded=0;entryX=0;entryY=0.5;entryDx=0;entryDy=0;exitX=1;exitY=0.5;exitDx=0;exitDy=0;" edge="1" parent="1" source="-SkAeLWxzW13uVKJ9q1q-15" target="-SkAeLWxzW13uVKJ9q1q-1">
          <mxGeometry width="160" relative="1" as="geometry">
            <mxPoint x="-420" y="187.96" as="sourcePoint" />
            <mxPoint x="-310" y="187.96" as="targetPoint" />
          </mxGeometry>
        </mxCell>
        <mxCell id="r38iWUGdL_r44oemzhUt-17" value="" style="endArrow=diamondThin;endFill=1;endSize=24;html=1;rounded=0;exitX=0.5;exitY=0;exitDx=0;exitDy=0;" edge="1" parent="1" source="-SkAeLWxzW13uVKJ9q1q-15">
          <mxGeometry width="160" relative="1" as="geometry">
            <mxPoint x="-385" y="185" as="sourcePoint" />
            <mxPoint x="-420" y="60" as="targetPoint" />
          </mxGeometry>
        </mxCell>
        <mxCell id="r38iWUGdL_r44oemzhUt-18" value="" style="endArrow=diamondThin;endFill=1;endSize=24;html=1;rounded=0;entryX=0;entryY=0.5;entryDx=0;entryDy=0;exitX=1;exitY=0.5;exitDx=0;exitDy=0;" edge="1" parent="1" source="Fi8bxCCK50g3ECXb_paJ-14" target="Fi8bxCCK50g3ECXb_paJ-1">
          <mxGeometry width="160" relative="1" as="geometry">
            <mxPoint x="-510" y="46" as="sourcePoint" />
            <mxPoint x="-490" y="-40" as="targetPoint" />
          </mxGeometry>
        </mxCell>
        <mxCell id="r38iWUGdL_r44oemzhUt-19" value="" style="endArrow=diamondThin;endFill=1;endSize=24;html=1;rounded=0;exitX=1;exitY=0.5;exitDx=0;exitDy=0;entryX=0;entryY=0.5;entryDx=0;entryDy=0;" edge="1" parent="1" source="Fi8bxCCK50g3ECXb_paJ-1" target="hLQOt44AYmpmIRwFQD5W-1">
          <mxGeometry width="160" relative="1" as="geometry">
            <mxPoint x="-250" y="70" as="sourcePoint" />
            <mxPoint x="-250" y="-30" as="targetPoint" />
          </mxGeometry>
        </mxCell>
        <mxCell id="r38iWUGdL_r44oemzhUt-20" value="" style="endArrow=diamondThin;endFill=1;endSize=24;html=1;rounded=0;exitX=0;exitY=0;exitDx=0;exitDy=0;entryX=0.5;entryY=1;entryDx=0;entryDy=0;" edge="1" parent="1" source="-SkAeLWxzW13uVKJ9q1q-127" target="hLQOt44AYmpmIRwFQD5W-1">
          <mxGeometry width="160" relative="1" as="geometry">
            <mxPoint x="445" y="179.62" as="sourcePoint" />
            <mxPoint x="290" y="-14.379999999999999" as="targetPoint" />
          </mxGeometry>
        </mxCell>
        <mxCell id="r38iWUGdL_r44oemzhUt-21" value="" style="endArrow=diamondThin;endFill=1;endSize=24;html=1;rounded=0;exitX=1;exitY=0.5;exitDx=0;exitDy=0;entryX=0;entryY=0.5;entryDx=0;entryDy=0;" edge="1" parent="1" source="-SkAeLWxzW13uVKJ9q1q-127" target="-SkAeLWxzW13uVKJ9q1q-113">
          <mxGeometry width="160" relative="1" as="geometry">
            <mxPoint x="700" y="120" as="sourcePoint" />
            <mxPoint x="820" y="80" as="targetPoint" />
          </mxGeometry>
        </mxCell>
        <mxCell id="r38iWUGdL_r44oemzhUt-22" value="" style="endArrow=diamondThin;endFill=0;endSize=24;html=1;rounded=0;exitX=0;exitY=0;exitDx=0;exitDy=0;entryX=0.75;entryY=1;entryDx=0;entryDy=0;" edge="1" parent="1" source="-SkAeLWxzW13uVKJ9q1q-113" target="hLQOt44AYmpmIRwFQD5W-1">
          <mxGeometry width="160" relative="1" as="geometry">
            <mxPoint x="410" y="187" as="sourcePoint" />
            <mxPoint x="240" y="-30" as="targetPoint" />
          </mxGeometry>
        </mxCell>
        <mxCell id="r38iWUGdL_r44oemzhUt-24" value="" style="endArrow=diamondThin;endFill=1;endSize=24;html=1;rounded=0;exitX=1;exitY=0.5;exitDx=0;exitDy=0;entryX=0;entryY=0.5;entryDx=0;entryDy=0;" edge="1" parent="1" source="-SkAeLWxzW13uVKJ9q1q-113" target="-SkAeLWxzW13uVKJ9q1q-36">
          <mxGeometry width="160" relative="1" as="geometry">
            <mxPoint x="545" y="520" as="sourcePoint" />
            <mxPoint x="520" y="360" as="targetPoint" />
          </mxGeometry>
        </mxCell>
        <mxCell id="r38iWUGdL_r44oemzhUt-25" value="" style="endArrow=diamondThin;endFill=1;endSize=24;html=1;rounded=0;exitX=1;exitY=0.5;exitDx=0;exitDy=0;entryX=0.5;entryY=0;entryDx=0;entryDy=0;" edge="1" parent="1" source="-SkAeLWxzW13uVKJ9q1q-65" target="-SkAeLWxzW13uVKJ9q1q-145">
          <mxGeometry width="160" relative="1" as="geometry">
            <mxPoint x="300" y="270" as="sourcePoint" />
            <mxPoint x="640" y="320" as="targetPoint" />
            <Array as="points">
              <mxPoint x="300" y="179" />
              <mxPoint x="300" y="320" />
              <mxPoint x="105" y="320" />
            </Array>
          </mxGeometry>
        </mxCell>
        <mxCell id="r38iWUGdL_r44oemzhUt-26" value="" style="endArrow=diamondThin;endFill=1;endSize=24;html=1;rounded=0;exitX=1;exitY=0.5;exitDx=0;exitDy=0;entryX=0;entryY=0.5;entryDx=0;entryDy=0;" edge="1" parent="1" source="-SkAeLWxzW13uVKJ9q1q-95" target="-SkAeLWxzW13uVKJ9q1q-83">
          <mxGeometry width="160" relative="1" as="geometry">
            <mxPoint x="-535" y="494" as="sourcePoint" />
            <mxPoint x="-570" y="300" as="targetPoint" />
          </mxGeometry>
        </mxCell>
        <mxCell id="r38iWUGdL_r44oemzhUt-27" value="" style="endArrow=diamondThin;endFill=1;endSize=24;html=1;rounded=0;exitX=0;exitY=0.5;exitDx=0;exitDy=0;entryX=1;entryY=0.5;entryDx=0;entryDy=0;" edge="1" parent="1" source="-SkAeLWxzW13uVKJ9q1q-145" target="-SkAeLWxzW13uVKJ9q1q-83">
          <mxGeometry width="160" relative="1" as="geometry">
            <mxPoint x="-120" y="333" as="sourcePoint" />
            <mxPoint x="-30" y="333" as="targetPoint" />
          </mxGeometry>
        </mxCell>
        <mxCell id="r38iWUGdL_r44oemzhUt-28" value="" style="endArrow=diamondThin;endFill=1;endSize=24;html=1;rounded=0;entryX=0.5;entryY=0;entryDx=0;entryDy=0;" edge="1" parent="1" target="-SkAeLWxzW13uVKJ9q1q-83">
          <mxGeometry width="160" relative="1" as="geometry">
            <mxPoint x="110" y="320" as="sourcePoint" />
            <mxPoint x="-100" y="344" as="targetPoint" />
            <Array as="points">
              <mxPoint x="-210" y="320" />
            </Array>
          </mxGeometry>
        </mxCell>
        <mxCell id="r38iWUGdL_r44oemzhUt-29" value="" style="endArrow=diamondThin;endFill=1;endSize=24;html=1;rounded=0;exitX=1;exitY=0.25;exitDx=0;exitDy=0;entryX=0;entryY=0.5;entryDx=0;entryDy=0;" edge="1" parent="1" source="-SkAeLWxzW13uVKJ9q1q-145" target="-SkAeLWxzW13uVKJ9q1q-171">
          <mxGeometry width="160" relative="1" as="geometry">
            <mxPoint x="180" y="364.38" as="sourcePoint" />
            <mxPoint x="250" y="364.38" as="targetPoint" />
          </mxGeometry>
        </mxCell>
      </root>
    </mxGraphModel>
  </diagram>
</mxfile>
